<svg width="1204" height="863" viewBox="0 0 1204 863" fill="none" xmlns="http://www.w3.org/2000/svg">
<path d="M559.995 273.531C577.192 272.424 594.366 273.354 611.541 273.155C594.72 294.601 576.992 315.471 559.796 336.74C554.993 342.65 549.814 348.382 545.565 354.844C564.975 355.398 584.185 354.844 603.573 355.021C615.591 355.198 627.586 354.092 639.427 356.681C661.781 361.108 682.474 375.339 693.385 395.678C701.508 410.462 703.92 428.035 701.154 444.657C700.047 451.119 697.635 457.228 695.975 463.513H734.772C743.824 463.513 753.629 462.207 761.021 456.121C769.697 449.282 772.84 437.641 773.216 426.929C773.769 402.893 773.039 378.88 773.592 354.844H822.194V429.872C822.371 441.138 821.464 452.425 817.392 462.96C811.836 477.191 800.947 489.208 787.447 496.401C771.379 505.077 752.899 507.866 734.971 507.667H392.942C375.391 528.183 358.747 549.43 341.396 570.146C339.537 572.558 336.416 571.629 333.827 571.806H285.601C302.421 549.983 320.901 529.489 337.346 507.49C314.616 505.276 292.44 496.025 276.372 479.581C259.728 462.938 250.499 439.478 251.252 415.995C251.252 392.89 261.41 369.983 278.231 354.07C297.087 336.143 323.513 326.714 349.363 327.821C374.86 328.551 400.179 339.662 417.375 358.496C434.572 376.977 442.318 402.849 439.375 427.792C438.445 440.363 433.466 452.004 427.91 463.27H621.013C628.029 463.27 635.045 461.61 640.6 457.161C657.044 444.966 656.867 416.305 639.87 404.664C634.89 400.968 628.782 399.109 622.496 399.109H486.317C486.317 387.268 485.764 375.449 486.494 363.631C489.637 358.452 493.886 354.203 497.582 349.577C518.475 324.258 538.969 298.385 560.238 273.243L560.061 273.42L559.995 273.531ZM334.358 372.417C321.233 375.737 309.791 385.542 304.988 398.29C297.419 417.7 301.469 442.842 318.666 455.767C334.933 468.692 360.429 467.608 375.391 453.177C396.084 433.967 394.424 395.324 370.765 378.88C360.407 371.289 346.752 369.075 334.358 372.417Z" fill="white"/>
<path d="M1090.5 313.257C1103.25 309.561 1117.66 318.436 1120.45 331.361C1123.77 344.287 1114.72 358.54 1101.59 360.93C1088.84 363.874 1074.99 354.822 1072.58 341.896C1069.81 329.502 1078.13 316.201 1090.5 313.434V313.257Z" fill="white"/>
<path d="M887.993 354.491C907.027 336.187 934.006 326.582 960.432 328.065C987.034 328.995 1013.11 341.189 1030.28 361.706C1054.12 389.437 1056.71 432.307 1038.05 463.536H1116.4C1125.27 463.536 1134.5 462.429 1141.72 457.073C1151.14 450.234 1154.64 438.217 1155.02 426.951C1155.39 402.916 1155.02 379.08 1155.19 355.044H1203.8C1204.17 379.08 1203.8 402.916 1203.8 426.951C1204.53 444.878 1201.76 463.735 1190.5 478.143C1175.16 498.836 1148.55 506.981 1123.79 507.712C1083.51 508.088 1043.03 507.711 1002.75 508.088C985.197 529.335 968.001 550.604 950.627 571.85C932.346 572.404 913.843 571.85 895.562 571.85C912.936 550.227 930.664 529.158 947.861 507.534C923.095 505.498 898.904 494.41 882.637 475.376C868.406 459.109 860.837 437.663 861.567 416.04C861.567 392.934 871.549 370.382 888.17 354.491H887.971H887.993ZM946.931 371.665C933.807 374.255 922.165 383.13 916.433 395.324C907.204 415.288 910.878 442.643 929.557 455.944C946.001 468.693 971.498 467.21 986.105 452.425C1006.42 432.838 1004.39 394.395 980.749 378.482C971.144 371.466 958.573 369.253 946.931 371.643V371.665Z" fill="white"/>
<path d="M709.299 535.62C722.224 532.477 736.455 541.728 738.491 554.83C741.258 567.579 732.029 581.256 719.081 583.469C706.333 586.236 692.478 576.808 690.442 563.883C687.853 551.311 696.728 538.01 709.299 535.598V535.62Z" fill="white"/>
<path d="M271.348 643.005C288.899 626.738 313.665 623.971 336.771 624.347C358.77 624.724 382.23 627.866 398.498 643.558C411.423 655.753 417.907 673.68 418.084 691.43V798.261C402.194 798.815 386.104 798.438 370.213 798.261C369.836 766.281 370.213 734.123 370.213 702.164C370.213 690.146 365.963 676.468 354.875 670.183C343.234 663.72 328.272 663.72 316.078 669.253C303.883 675.163 299.08 689.593 299.08 702.164V797.907C283.189 798.837 267.099 798.284 251.208 798.284C250.832 763.16 251.208 728.058 251.208 692.935C251.031 674.454 257.671 655.598 271.348 642.85V643.027V643.005Z" fill="white"/>
<path d="M700.8 628.95C726.296 621.359 754.935 622.288 778.794 634.505C800.793 645.217 816.861 663.897 822.04 687.733C826.843 710.286 825.36 734.875 814.272 755.391C802.453 778.32 779.901 795.118 754.958 800.851C733.157 806.029 710.052 802.887 690.088 793.082C689.712 816.011 690.088 838.918 690.088 861.847C674.198 862.223 658.307 862.223 642.593 861.847V717.678C642.593 702.34 644.253 686.804 649.609 672.396C657.731 649.666 678.248 635.612 700.977 628.972H700.8V628.95ZM727.58 665.557C714.456 667.04 702.637 675.361 696.175 686.804C684.71 707.873 688.406 738.548 709.1 752.602C725.168 764.244 749.203 761.832 762.859 747.424C779.502 730.227 780.232 700.658 766.179 681.625C757.304 669.983 741.966 663.521 727.558 665.535L727.58 665.557Z" fill="white"/>
<path d="M879.119 645.771C899.636 628.574 927.345 622.112 954.147 624.878C973.004 626.914 992.015 629.504 1008.11 640.039C1001.27 652.056 994.428 663.875 987.589 675.893C974.288 669.784 959.857 664.428 945.095 665.911C929.381 667.394 915.15 678.305 909.44 692.89C904.638 705.284 904.638 719.316 909.263 731.71C914.996 747.048 930.156 758.335 946.401 759.242C960.632 760.172 974.487 755.546 987.058 749.084C994.826 760.725 1001.29 773.119 1008.13 785.314C992.06 795.473 973.203 800.829 954.169 802.688C921.104 805.631 886.711 791.777 866.017 765.528C852.893 749.084 846.607 727.638 848.09 706.767C849.197 683.307 861.214 660.754 879.142 645.771H879.119Z" fill="white"/>
<path d="M1092.16 625.432C1114.89 621.913 1138.91 623.396 1158.69 635.037C1179.76 646.878 1195.83 669.962 1201.36 693.444C1206.54 715.443 1203.78 739.656 1192.31 759.243C1179.74 781.419 1157.39 794.544 1132.82 800.453C1107.32 806.561 1079.42 802.865 1057.06 789.188C1035.81 776.617 1019.72 754.994 1015.12 730.604C1011.43 711.017 1013.64 690.124 1022.89 672.374C1036.19 645.949 1063.17 630.035 1092.19 625.609V625.432H1092.16ZM1098.27 666.288C1085.15 669.431 1073.51 678.859 1068.15 691.231C1059.65 711.371 1063.72 738.173 1082.38 751.474C1099.02 764.223 1124.87 762.386 1139.66 747.402C1159.62 727.815 1157.76 689.726 1134.3 673.282C1123.94 665.89 1110.64 663.3 1098.27 666.266V666.288Z" fill="white"/>
<path d="M446.724 629.128C462.615 628.95 478.705 629.128 494.595 629.128C494.972 661.485 494.595 691.607 494.772 723.942C494.95 735.959 499.398 749.261 510.663 755.17C522.681 761.456 538.019 761.456 550.213 755.17C561.678 748.885 565.927 734.831 565.927 722.459V629.305C581.995 628.928 598.085 628.928 614.153 629.305C613.976 664.782 614.153 697.87 614.153 733.37C614.153 752.403 606.584 771.813 591.8 784.207C571.837 800.851 544.304 804.724 519.184 802.865C496.277 801.006 472.065 791.954 458.764 772.19C448.782 758.335 446.569 740.585 447.122 723.942V629.305L446.746 629.128H446.724Z" fill="white"/>
<path d="M98.3861 3.14279C100.599 1.837 102.813 0.553303 105.225 0C109.474 1.10661 113.17 3.87315 117.044 5.90931C146.612 23.106 176.358 40.2805 205.926 57.4771C208.339 58.7829 210.729 60.9962 210.353 63.9398C210.353 98.5101 210.353 132.881 210.53 167.452C210.353 170.395 210.906 174.468 207.94 176.128C204.421 178.717 200.548 175.751 197.228 174.268C190.943 170.749 184.303 167.806 178.018 163.911C175.605 162.804 175.074 160.215 175.074 158.001C174.897 132.306 175.251 106.61 174.897 80.9372C172.861 78.1707 169.165 77.0641 166.398 75.205C145.882 63.5635 125.741 51.3687 105.225 39.7272C83.2256 52.2982 61.2484 65.2234 39.2491 77.9715C37.7662 79.0781 35.1768 80.0077 35.553 82.3979C35.553 106.987 35.553 131.553 35.73 156.341C49.0315 164.287 62.532 171.856 75.8335 179.624C78.2459 181.107 81.5657 182.767 81.1895 186.087C81.3665 195.139 81.3665 204.191 81.1895 213.265C81.5657 218.245 75.081 221.034 71.407 217.891C49.2306 205.143 27.0543 192.195 4.87789 179.27C2.11137 177.787 -0.478083 175.397 0.0752201 171.878V69.8711C0.252277 65.7988 -1.03139 60.0666 3.59422 57.8534C35.0218 39.3731 66.8036 21.2468 98.2091 2.76652L98.3861 3.14279ZM227.748 123.276C228.302 119.027 234.034 117.367 237.354 119.956C259.53 132.704 281.707 145.652 303.883 158.577C306.649 160.06 309.239 162.45 308.686 165.969C308.686 202 309.062 238.053 308.686 274.084C309.239 277.404 306.273 279.639 303.706 281.1C272.101 299.403 240.519 317.707 209.091 336.187C206.325 337.847 202.983 339.131 200.216 337.117C169.165 319.19 138.312 301.086 107.261 283.336C103.941 281.122 98.3861 279.462 98.7624 274.461V167.806C98.032 163.003 103.742 159.307 107.814 162.074C115.76 166.146 123.528 170.019 131.274 174.468C135.148 176.504 133.687 181.306 134.041 184.825V258.016C157.324 271.517 180.43 285.195 203.89 298.496C226.996 284.995 249.903 271.517 273.186 258.393C273.562 233.073 273.186 207.555 273.186 182.236C258.955 173.737 244.37 165.792 230.139 157.094C226.819 155.434 227.549 151.185 227.372 148.042C227.549 139.919 226.996 131.775 227.748 123.829V123.276ZM179.877 188.322C183.196 187.769 186.162 190.181 189.106 191.465C195.391 194.984 202.031 197.928 208.139 201.823C210.729 203.306 209.998 206.626 210.353 209.038C210.353 217.714 210.53 226.589 210.176 235.287C210.176 239.359 204.997 241.749 201.5 239.713C193.554 235.84 185.786 231.768 178.04 227.319C174.72 225.659 175.096 221.587 175.096 218.444C175.096 210.322 174.919 202 175.096 193.855C175.096 191.089 177.132 188.676 179.899 188.123V188.3L179.877 188.322Z" fill="url(#paint0_radial_1884_15)"/>
<defs>
<radialGradient id="paint0_radial_1884_15" cx="0" cy="0" r="1" gradientUnits="userSpaceOnUse" gradientTransform="translate(154.425 169.067) scale(161.919 161.919)">
<stop stop-color="#E06E0C"/>
<stop offset="1" stop-color="#E22419"/>
</radialGradient>
</defs>
</svg>
