<svg width="197" height="209" viewBox="0 0 197 209" fill="none" xmlns="http://www.w3.org/2000/svg">
<mask id="mask0_2349_1053" style="mask-type:luminance" maskUnits="userSpaceOnUse" x="8" y="8" width="181" height="192">
<path d="M92.0591 11.69C83.7491 20.6 71.0491 31.67 53.1991 39.99C35.2691 48.35 18.9691 50.75 8.35911 51.45C8.19911 66.31 9.83902 99.96 30.389 135.42C52.759 174.01 84.629 192.48 97.779 199.19C109.229 194.67 143.679 179.38 167.249 141.04C192.509 99.95 188.719 59.31 187.199 47.57C177.869 47.84 159.229 47.12 138.739 37.19C123.319 29.71 112.569 19.79 105.689 11.91C103.869 9.83003 101.339 8.79004 98.789 8.79004C96.239 8.79004 93.8791 9.76002 92.0691 11.71" fill="white"/>
</mask>
<g mask="url(#mask0_2349_1053)">
<path d="M192.509 8.77002H8.19922V199.18H192.509V8.77002Z" fill="url(#paint0_linear_2349_1053)"/>
</g>
<path d="M1.00952 47.1605L0.939575 46.1605C12.3296 45.4105 29.8396 42.8305 49.0896 33.8505C68.2496 24.9205 81.8896 13.0305 90.8096 3.47049C92.9696 1.15049 95.8996 0.000488281 98.8096 0.000488281C101.83 0.000488281 104.86 1.24049 107.02 3.72049C114.4 12.1705 125.92 22.8105 142.46 30.8305C162.3 40.4505 180.51 42.0005 191.23 42.0005C192.38 42.0005 193.45 41.9805 194.42 41.9505L195.32 41.9205L195.44 42.8205C195.94 46.7105 196.68 53.5205 196.68 62.3705C196.68 82.5805 192.86 113.45 173.72 144.57C148.05 186.31 110.57 202.95 98.0996 207.88L97.6796 208.05L97.2795 207.85C82.9795 200.55 48.3196 180.47 23.9796 138.49C2.46961 101.39 -0.000488281 66.1305 -0.000488281 49.0905C-0.000488281 48.4105 -0.000478515 47.7705 0.00952148 47.1505V46.2205L0.939575 46.1605L1.00952 47.1605H2.00952C2.00952 47.7805 1.99951 48.4205 1.99951 49.0905C1.99951 65.9205 4.44959 100.81 25.7096 137.48C49.7696 178.98 84.0496 198.86 98.1896 206.06L97.7396 206.951L97.3695 206.021C109.67 201.161 146.7 184.721 172.03 143.521C190.91 112.811 194.69 82.3305 194.69 62.3705C194.69 53.6305 193.97 46.9105 193.47 43.0705L194.46 42.9405L194.49 43.9405C193.5 43.9705 192.42 43.9905 191.25 43.9905C180.34 43.9905 161.81 42.4105 141.61 32.6205C124.78 24.4605 113.05 13.6305 105.54 5.03049C103.77 3.01049 101.31 2.00049 98.8296 2.00049C96.4396 2.00049 94.0596 2.94048 92.2896 4.84048C83.2396 14.5405 69.3996 26.6105 49.9496 35.6705C30.4196 44.7805 12.6496 47.4005 1.0896 48.1605L1.01953 47.1605H1.00952Z" fill="url(#paint1_linear_2349_1053)"/>
<path d="M46.3894 79.5107C46.3894 82.6007 48.4594 84.5407 53.2894 84.5407H65.6394V61.3507C65.6394 59.0807 66.8995 58.2607 68.9695 58.2607C70.2295 58.2607 71.2795 58.6307 72.0995 58.9107V84.5308H77.3794V90.2208H51.9994C44.5294 90.2208 39.9395 85.7107 39.9395 79.8607C39.9395 76.4507 41.1194 75.1107 43.5494 75.1107C44.7294 75.1107 45.7394 75.3907 46.8794 75.9207C46.4294 77.6707 46.3894 79.1307 46.3894 79.4907M52.3595 73.6207H54.4294C53.8994 73.0907 53.6995 72.4407 53.6995 71.6707C53.6995 69.6007 55.4095 68.4608 57.3595 68.4608C58.8595 68.4608 60.0795 68.9108 60.0795 69.8408C60.0795 70.2508 59.8394 70.6508 59.3894 71.0208C59.0694 70.8608 58.4594 70.5308 57.6794 70.5308C56.7094 70.5308 56.0995 71.0207 56.0995 71.8307C56.0995 73.0907 57.1194 73.6207 58.2494 73.6207H60.4395V75.7307H52.3595V73.6207Z" fill="white"/>
<path d="M81.4397 84.5403V74.5104C81.4397 72.3604 82.6997 71.5403 84.7697 71.5403C86.2297 71.5403 87.5297 72.0704 87.8997 72.1904V90.2204H76.1597V84.5403H81.4397ZM84.6897 63.6304C86.4397 63.6304 87.7797 64.9704 87.7797 66.6404C87.7797 68.3104 86.4397 69.7303 84.6897 69.7303C82.9397 69.7303 81.6797 68.3904 81.6797 66.6404C81.6797 64.8904 82.9397 63.6304 84.6897 63.6304Z" fill="white"/>
<path d="M92.5293 90.2307V61.3507C92.5293 59.0807 93.7894 58.2607 95.8594 58.2607C97.4394 58.2607 98.5394 58.7507 98.9894 58.9507V84.5308H104.269V90.2208H92.5293V90.2307Z" fill="white"/>
<path d="M120.51 84.5405H103.05V90.2305H120.51V84.5405Z" fill="white"/>
<path d="M133.76 90.6404C130.51 90.6404 128.03 89.1404 126.53 87.8004C125.43 88.9404 123.97 90.2404 121.7 90.2404H119.3V84.5604H120.6C123.12 84.5604 123.52 83.3404 123.52 80.9404C123.52 74.9704 128.27 71.1504 133.79 71.1504C140 71.1504 143.9 74.9704 143.9 80.9404C143.9 88.5804 137.16 90.6504 133.75 90.6504M133.76 84.6703C135.91 84.6703 137.5 82.9604 137.5 80.6904C137.5 78.4204 135.92 76.6703 133.76 76.6703C131.6 76.6703 129.98 78.4204 129.98 80.6904C129.98 82.9604 131.6 84.6703 133.76 84.6703Z" fill="white"/>
<path d="M146.71 53.9207H148.78C148.25 53.3907 148.05 52.7408 148.05 51.9708C148.05 49.9008 149.76 48.7607 151.7 48.7607C153.2 48.7607 154.42 49.2107 154.42 50.1407C154.42 50.5507 154.18 50.9507 153.73 51.3207C153.4 51.1607 152.8 50.8307 152.02 50.8307C151.05 50.8307 150.44 51.3207 150.44 52.1307C150.44 53.3907 151.46 53.9207 152.59 53.9207H154.78V56.0308H146.7V53.9207H146.71ZM147.57 90.2307V61.3507C147.57 59.0807 148.87 58.2607 150.94 58.2607C152.44 58.2607 153.66 58.7907 154.03 58.9507V90.2208H147.57V90.2307Z" fill="white"/>
<path d="M46.6294 126.89C46.6294 129.98 48.6595 131.93 53.4895 131.93H65.8295V108.74C65.8295 106.47 67.1295 105.65 69.1995 105.65C70.3795 105.65 71.4694 106.02 72.2894 106.3V137.61H52.2295C44.7595 137.61 40.1694 133.1 40.1694 127.25C40.1694 123.84 41.3094 122.5 43.7794 122.5C44.9194 122.5 45.9695 122.78 47.0695 123.31C46.6195 125.06 46.6194 126.52 46.6194 126.88M52.5995 121.01H54.6694C54.1394 120.48 53.9395 119.83 53.9395 119.06C53.9395 116.99 55.6495 115.85 57.5995 115.85C59.0995 115.85 60.3195 116.3 60.3195 117.23C60.3195 117.64 60.0794 118.04 59.6294 118.41C59.3094 118.25 58.6994 117.92 57.9194 117.92C56.9494 117.92 56.3395 118.41 56.3395 119.22C56.3395 120.48 57.3595 121.01 58.4895 121.01H60.6794V123.12H52.5995V121.01Z" fill="white"/>
<path d="M76.3193 137.62V131.93H90.2893C90.2893 126.57 87.5693 124.58 83.8693 124.58C82.6893 124.58 81.3093 124.74 79.8893 125.19C79.5993 124.99 78.3494 123.61 78.3494 121.94C78.3494 119.02 82.4894 118.53 84.4794 118.53C91.2594 118.53 97.1493 122.67 97.1493 131.93H101.169V137.62H76.3193Z" fill="white"/>
<path d="M126.45 131.931H100.45V137.621H126.45V131.931Z" fill="white"/>
<path d="M137.569 127.99C137.569 130.47 137.929 131.93 140.529 131.93H143.49V137.62H139.429C137.319 137.62 135.569 137.09 134.469 135.35C133.369 137.1 131.339 137.62 129.269 137.62H125.209V131.93H128.169C130.769 131.93 131.129 130.47 131.129 127.99V121.9C131.129 119.75 132.349 118.94 134.419 118.94C135.919 118.94 137.179 119.43 137.549 119.59V128L137.569 127.99ZM130.549 143.03C132.299 143.03 133.599 144.37 133.599 146.04C133.599 147.71 132.299 149.13 130.549 149.13C128.799 149.13 127.499 147.79 127.499 146.04C127.499 144.29 128.799 143.03 130.549 143.03ZM138.099 143.03C139.849 143.03 141.189 144.37 141.189 146.04C141.189 147.71 139.849 149.13 138.099 149.13C136.349 149.13 135.089 147.79 135.089 146.04C135.089 144.29 136.349 143.03 138.099 143.03Z" fill="white"/>
<path d="M147.57 131.93V121.9C147.57 119.75 148.83 118.94 150.9 118.94C152.36 118.94 153.66 119.47 154.03 119.59V137.62H142.29V131.93H147.57ZM149.75 143.07C151.5 143.07 152.84 144.53 152.84 146.12C152.84 147.71 151.5 149.16 149.75 149.16C148 149.16 146.58 147.74 146.58 146.12C146.58 144.5 147.96 143.07 149.75 143.07Z" fill="white"/>
<path d="M117.73 147.69H43.5797C42.4997 147.69 41.6196 146.81 41.6196 145.73C41.6196 144.65 42.4997 143.771 43.5797 143.771H117.73C118.81 143.771 119.69 144.65 119.69 145.73C119.69 146.81 118.81 147.69 117.73 147.69Z" fill="white"/>
<defs>
<linearGradient id="paint0_linear_2349_1053" x1="8.34922" y1="103.71" x2="188.329" y2="103.71" gradientUnits="userSpaceOnUse">
<stop stop-color="#DF2127"/>
<stop offset="0.04" stop-color="#DF2127"/>
<stop offset="0.11" stop-color="#DF3026"/>
<stop offset="0.28" stop-color="#DF5326"/>
<stop offset="0.42" stop-color="#DF6826"/>
<stop offset="0.51" stop-color="#E07026"/>
<stop offset="0.59" stop-color="#DF6926"/>
<stop offset="0.71" stop-color="#DF5526"/>
<stop offset="0.85" stop-color="#DF3626"/>
<stop offset="0.93" stop-color="#DF2127"/>
<stop offset="1" stop-color="#DF2127"/>
</linearGradient>
<linearGradient id="paint1_linear_2349_1053" x1="-0.500488" y1="102.97" x2="197.18" y2="102.97" gradientUnits="userSpaceOnUse">
<stop stop-color="#DF2127"/>
<stop offset="0.04" stop-color="#DF2127"/>
<stop offset="0.11" stop-color="#DF3026"/>
<stop offset="0.28" stop-color="#DF5326"/>
<stop offset="0.42" stop-color="#DF6826"/>
<stop offset="0.51" stop-color="#E07026"/>
<stop offset="0.59" stop-color="#DF6926"/>
<stop offset="0.71" stop-color="#DF5526"/>
<stop offset="0.85" stop-color="#DF3626"/>
<stop offset="0.93" stop-color="#DF2127"/>
<stop offset="1" stop-color="#DF2127"/>
</linearGradient>
</defs>
</svg>
