<svg width="1080" height="1920" viewBox="0 0 1080 1920" fill="none" xmlns="http://www.w3.org/2000/svg">
<g clip-path="url(#clip0_2352_3621)">
<rect width="1920" height="1080" transform="matrix(0 1 -1 0 1080 0)" fill="white"/>
<path d="M1080 1920V0H0V1920H1080Z" fill="url(#paint0_radial_2352_3621)"/>
<g opacity="0.13">
<mask id="mask0_2352_3621" style="mask-type:luminance" maskUnits="userSpaceOnUse" x="0" y="0" width="1080" height="1920">
<path d="M1080 1920V0H0V1920H1080Z" fill="white"/>
</mask>
<g mask="url(#mask0_2352_3621)">
<path d="M4.15215 1837.84V963.735L72.3423 909.106V79.5362L156.28 0H273.655L311.532 58.2794H592.101L660.655 0H945.298L1011.8 58.8039L1011.82 61.6617L1015.59 573.076L1080.01 630.146V1141.11L878.433 1321.32V1919.92H356.82L277.266 1837.65L4.1632 1837.84H4.15215ZM19.3141 969.911V1824.11L284.135 1823.93L363.688 1906.21H863.271V1315.58L1064.85 1135.37V635.904L1000.47 578.877L1000.45 576.019L996.681 64.6158L939.114 13.7109H666.663L598.108 71.9904H302.875L264.997 13.7109H162.773L87.5043 85.027V915.281L19.3141 969.911Z" fill="white"/>
<path d="M1073.37 1193.57V1294.41L900.563 1451.3V1349.22L1073.37 1193.57Z" fill="white"/>
<path d="M1073.37 1193.57L1061.97 1203.84H1073.37V1193.57Z" fill="white"/>
<path d="M1073.37 1203.84H1061.97L1060.26 1205.38H1073.37V1203.84Z" fill="white"/>
<path d="M1073.37 1205.38H1060.26L1058.54 1206.93H1073.37V1205.38Z" fill="white"/>
<path d="M1073.37 1206.92H1058.54L1056.83 1208.47H1073.37V1206.92Z" fill="white"/>
<path d="M1073.37 1208.47H1056.83L1055.12 1210.01H1073.37V1208.47Z" fill="white"/>
<path d="M1073.37 1210.01H1055.12L1053.42 1211.55H1073.37V1210.01Z" fill="white"/>
<path d="M1073.37 1211.55H1053.42L1051.71 1213.09H1073.37V1211.55Z" fill="white"/>
<path d="M1073.37 1213.09H1051.71L1050 1214.62H1073.37V1213.09Z" fill="white"/>
<path d="M1073.37 1214.62H1050L1048.28 1216.16H1073.37V1214.62Z" fill="white"/>
<path d="M1073.37 1216.16H1048.28L1046.57 1217.7H1073.37V1216.16Z" fill="white"/>
<path d="M1073.37 1217.7H1046.57L1044.86 1219.24H1073.37V1217.7Z" fill="white"/>
<path d="M1073.37 1219.24H1044.86L1043.15 1220.79H1073.37V1219.24Z" fill="white"/>
<path d="M1073.37 1220.79H1043.15L1041.44 1222.33H1073.37V1220.79Z" fill="white"/>
<path d="M1073.37 1222.33H1041.44L1039.73 1223.87H1073.37V1222.33Z" fill="white"/>
<path d="M1073.37 1223.87H1039.73L1038.01 1225.41H1073.37V1223.87Z" fill="white"/>
<path d="M1073.37 1225.41H1038.01L1036.3 1226.95H1073.37V1225.41Z" fill="white"/>
<path d="M1073.37 1226.95H1036.3L1034.59 1228.49H1073.37V1226.95Z" fill="white"/>
<path d="M1073.37 1228.49H1034.59L1032.88 1230.03H1073.37V1228.49Z" fill="white"/>
<path d="M1073.37 1230.03H1032.88L1031.17 1231.57H1073.37V1230.03Z" fill="white"/>
<path d="M1073.37 1231.58H1031.17L1029.46 1233.12H1073.37V1231.58Z" fill="white"/>
<path d="M1073.37 1233.12H1029.46L1027.74 1234.66H1073.37V1233.12Z" fill="white"/>
<path d="M1073.37 1234.66H1027.74L1026.03 1236.2H1073.37V1234.66Z" fill="white"/>
<path d="M1073.37 1236.2H1026.03L1024.33 1237.74H1073.37V1236.2Z" fill="white"/>
<path d="M1073.37 1237.74H1024.33L1022.62 1239.28H1073.37V1237.74Z" fill="white"/>
<path d="M1073.37 1239.28H1022.62L1020.91 1240.82H1073.37V1239.28Z" fill="white"/>
<path d="M1073.37 1240.82H1020.91L1019.2 1242.36H1073.37V1240.82Z" fill="white"/>
<path d="M1073.37 1242.36H1019.2L1017.49 1243.9H1073.37V1242.36Z" fill="white"/>
<path d="M1073.37 1243.9H1017.49L1015.77 1245.45H1073.37V1243.9Z" fill="white"/>
<path d="M1073.37 1245.45H1015.77L1014.06 1246.99H1073.37V1245.45Z" fill="white"/>
<path d="M1073.37 1246.99H1014.06L1012.35 1248.53H1073.37V1246.99Z" fill="white"/>
<path d="M1073.37 1248.53H1012.35L1010.64 1250.07H1073.37V1248.53Z" fill="white"/>
<path d="M1073.37 1250.07H1010.64L1008.93 1251.61H1073.37V1250.07Z" fill="white"/>
<path d="M1073.37 1251.61H1008.93L1007.22 1253.15H1073.37V1251.61Z" fill="white"/>
<path d="M1073.37 1253.15H1007.22L1005.5 1254.69H1073.37V1253.15Z" fill="white"/>
<path d="M1073.37 1254.69H1005.5L1003.79 1256.24H1073.37V1254.69Z" fill="white"/>
<path d="M1073.37 1256.23H1003.79L1002.08 1257.78H1073.37V1256.23Z" fill="white"/>
<path d="M1073.37 1257.78H1002.08L1000.37 1259.32H1073.37V1257.78Z" fill="white"/>
<path d="M1073.37 1259.32H1000.37L998.657 1260.86H1073.37V1259.32Z" fill="white"/>
<path d="M1073.37 1260.86H998.657L996.957 1262.4H1073.37V1260.86Z" fill="white"/>
<path d="M1073.37 1262.4H996.957L995.245 1263.94H1073.37V1262.4Z" fill="white"/>
<path d="M1073.37 1263.94H995.245L993.534 1265.48H1073.37V1263.94Z" fill="white"/>
<path d="M1073.37 1265.48H993.534L991.822 1267.02H1073.37V1265.48Z" fill="white"/>
<path d="M1073.37 1267.02H991.822L990.11 1268.57H1073.37V1267.02Z" fill="white"/>
<path d="M1073.37 1268.57H990.11L988.399 1270.11H1073.37V1268.57Z" fill="white"/>
<path d="M1073.37 1270.11H988.399L986.687 1271.65H1073.37V1270.11Z" fill="white"/>
<path d="M1073.37 1271.65H986.687L984.975 1273.19H1073.37V1271.65Z" fill="white"/>
<path d="M1073.37 1273.19H984.975L983.264 1274.73H1073.37V1273.19Z" fill="white"/>
<path d="M1073.37 1274.73H983.264L981.552 1276.27H1073.37V1274.73Z" fill="white"/>
<path d="M1073.37 1276.27H981.552L979.84 1277.81H1073.37V1276.27Z" fill="white"/>
<path d="M1073.37 1277.81H979.84L978.129 1279.35H1073.37V1277.81Z" fill="white"/>
<path d="M1073.37 1279.35H978.129L976.417 1280.9H1073.37V1279.35Z" fill="white"/>
<path d="M1073.37 1280.9H976.417L974.705 1282.44H1073.37V1280.9Z" fill="white"/>
<path d="M1073.37 1282.44H974.705L972.994 1283.98H1073.37V1282.44Z" fill="white"/>
<path d="M1073.37 1283.98H972.994L971.282 1285.52H1073.37V1283.98Z" fill="white"/>
<path d="M1073.37 1285.52H971.282L969.57 1287.06H1073.37V1285.52Z" fill="white"/>
<path d="M1073.37 1287.06H969.57L967.87 1288.6H1073.37V1287.06Z" fill="white"/>
<path d="M1073.37 1288.6H967.87L966.158 1290.14H1073.37V1288.6Z" fill="white"/>
<path d="M1073.37 1290.14H966.158L964.446 1291.68H1073.37V1290.14Z" fill="white"/>
<path d="M1073.37 1291.68H964.446L962.735 1293.23H1073.37V1291.68Z" fill="white"/>
<path d="M1073.37 1293.23H962.735L961.023 1294.77H1072.99L1073.37 1294.41V1293.23Z" fill="white"/>
<path d="M961.023 1294.77L959.312 1296.31H1071.29L1072.99 1294.77H961.023Z" fill="white"/>
<path d="M959.312 1296.31L957.6 1297.85H1069.59L1071.29 1296.31H959.312Z" fill="white"/>
<path d="M957.6 1297.85L955.889 1299.39H1067.89L1069.59 1297.85H957.6Z" fill="white"/>
<path d="M955.888 1299.39L954.177 1300.92H1066.2L1067.89 1299.39H955.888Z" fill="white"/>
<path d="M954.177 1300.92L952.465 1302.46H1064.5L1066.2 1300.92H954.177Z" fill="white"/>
<path d="M952.465 1302.46L950.753 1304H1062.79L1064.5 1302.46H952.465Z" fill="white"/>
<path d="M950.753 1304L949.042 1305.55H1061.11L1062.79 1304H950.753Z" fill="white"/>
<path d="M949.041 1305.54L947.33 1307.09H1059.4L1061.11 1305.54H949.041Z" fill="white"/>
<path d="M947.33 1307.09L945.618 1308.63H1057.7L1059.4 1307.09H947.33Z" fill="white"/>
<path d="M945.619 1308.63L943.907 1310.17H1056L1057.7 1308.63H945.619Z" fill="white"/>
<path d="M943.907 1310.17L942.195 1311.71H1054.31L1056.01 1310.17H943.907Z" fill="white"/>
<path d="M942.195 1311.71L940.484 1313.25H1052.61L1054.31 1311.71H942.195Z" fill="white"/>
<path d="M940.483 1313.25L938.772 1314.79H1050.91L1052.61 1313.25H940.483Z" fill="white"/>
<path d="M938.783 1314.79L937.071 1316.33H1049.22L1050.91 1314.79H938.783Z" fill="white"/>
<path d="M937.071 1316.33L935.36 1317.88H1047.52L1049.22 1316.33H937.071Z" fill="white"/>
<path d="M935.36 1317.88L933.648 1319.42H1045.82L1047.52 1317.88H935.36Z" fill="white"/>
<path d="M933.648 1319.42L931.936 1320.96H1044.12L1045.82 1319.42H933.648Z" fill="white"/>
<path d="M931.936 1320.96L930.224 1322.5H1042.43L1044.13 1320.96H931.936Z" fill="white"/>
<path d="M930.224 1322.5L928.513 1324.04H1040.73L1042.43 1322.5H930.224Z" fill="white"/>
<path d="M928.513 1324.04L926.801 1325.58H1039.03L1040.73 1324.04H928.513Z" fill="white"/>
<path d="M926.801 1325.58L925.277 1326.95H1037.53L1039.03 1325.58H926.801Z" fill="white"/>
<path d="M925.277 1326.95L923.764 1328.32H1036.02L1037.53 1326.95H925.277Z" fill="white"/>
<path d="M923.753 1328.32L922.24 1329.69H1034.5L1036.02 1328.32H923.753Z" fill="white"/>
<path d="M922.241 1329.69L920.717 1331.06H1033L1034.5 1329.69H922.241Z" fill="white"/>
<path d="M920.716 1331.06L919.192 1332.43H1031.49L1033 1331.06H920.716Z" fill="white"/>
<path d="M919.193 1332.43L917.68 1333.8H1029.98L1031.49 1332.43H919.193Z" fill="white"/>
<path d="M917.68 1333.8L916.156 1335.17H1028.47L1029.98 1333.8H917.68Z" fill="white"/>
<path d="M916.156 1335.17L914.632 1336.54H1026.96L1028.47 1335.17H916.156Z" fill="white"/>
<path d="M914.632 1336.54L913.108 1337.91H1025.45L1026.96 1336.54H914.632Z" fill="white"/>
<path d="M913.108 1337.91L911.584 1339.28H1023.95L1025.45 1337.91H913.108Z" fill="white"/>
<path d="M911.584 1339.28L910.071 1340.65H1022.43L1023.95 1339.28H911.584Z" fill="white"/>
<path d="M910.071 1340.65L908.547 1342.02H1020.92L1022.43 1340.65H910.071Z" fill="white"/>
<path d="M908.547 1342.02L907.023 1343.39H1019.42L1020.92 1342.02H908.547Z" fill="white"/>
<path d="M907.023 1343.39L905.499 1344.76H1017.91L1019.42 1343.39H907.023Z" fill="white"/>
<path d="M905.5 1344.76L903.987 1346.13H1016.39L1017.91 1344.76H905.5Z" fill="white"/>
<path d="M903.986 1346.13L902.463 1347.5H1014.89L1016.39 1346.13H903.986Z" fill="white"/>
<path d="M902.462 1347.5L900.938 1348.87H1013.38L1014.89 1347.5H902.462Z" fill="white"/>
<path d="M900.939 1348.87L900.563 1349.21V1350.24H1011.87L1013.38 1348.87H900.939Z" fill="white"/>
<path d="M900.563 1350.24V1351.61H1010.36L1011.86 1350.24H900.563Z" fill="white"/>
<path d="M900.563 1351.61V1352.98H1008.85L1010.36 1351.61H900.563Z" fill="white"/>
<path d="M900.563 1352.98V1354.36H1007.34L1008.85 1352.98H900.563Z" fill="white"/>
<path d="M900.563 1354.35V1355.72H1005.84L1007.34 1354.35H900.563Z" fill="white"/>
<path d="M900.563 1355.72V1357.09H1004.32L1005.84 1355.72H900.563Z" fill="white"/>
<path d="M900.563 1357.09V1358.47H1002.81L1004.32 1357.09H900.563Z" fill="white"/>
<path d="M900.563 1358.47V1359.84H1001.31L1002.81 1358.47H900.563Z" fill="white"/>
<path d="M900.563 1359.84V1361.2H999.795L1001.31 1359.84H900.563Z" fill="white"/>
<path d="M900.564 1361.2V1362.58H998.283L999.795 1361.2H900.564Z" fill="white"/>
<path d="M900.563 1362.58V1363.95H996.78L998.282 1362.58H900.563Z" fill="white"/>
<path d="M900.564 1363.95V1365.32H995.268L996.781 1363.95H900.564Z" fill="white"/>
<path d="M900.563 1365.32V1366.69H993.755L995.268 1365.32H900.563Z" fill="white"/>
<path d="M900.563 1366.69V1368.06H992.253L993.754 1366.69H900.563Z" fill="white"/>
<path d="M900.563 1368.06V1369.43H990.74L992.253 1368.06H900.563Z" fill="white"/>
<path d="M900.563 1369.43V1370.8H989.227L990.74 1369.43H900.563Z" fill="white"/>
<path d="M900.563 1370.8V1372.17H987.725L989.227 1370.8H900.563Z" fill="white"/>
<path d="M900.563 1372.17V1373.54H986.212L987.725 1372.17H900.563Z" fill="white"/>
<path d="M900.563 1373.54V1374.91H984.699L986.212 1373.54H900.563Z" fill="white"/>
<path d="M900.563 1374.91V1376.28H983.198L984.699 1374.91H900.563Z" fill="white"/>
<path d="M900.563 1376.28V1377.65H981.685L983.198 1376.28H900.563Z" fill="white"/>
<path d="M900.563 1377.65V1379.02H980.172L981.685 1377.65H900.563Z" fill="white"/>
<path d="M900.563 1379.02V1380.39H978.67L980.172 1379.02H900.563Z" fill="white"/>
<path d="M900.563 1380.39V1381.76H977.157L978.67 1380.39H900.563Z" fill="white"/>
<path d="M900.563 1381.76V1383.13H975.644L977.157 1381.76H900.563Z" fill="white"/>
<path d="M900.563 1383.13V1384.5H974.142L975.644 1383.13H900.563Z" fill="white"/>
<path d="M900.563 1384.5V1385.87H972.63L974.143 1384.5H900.563Z" fill="white"/>
<path d="M900.563 1385.87V1387.24H971.116L972.629 1385.87H900.563Z" fill="white"/>
<path d="M900.563 1387.24V1388.61H969.615L971.117 1387.24H900.563Z" fill="white"/>
<path d="M900.563 1388.61V1389.98H968.102L969.615 1388.61H900.563Z" fill="white"/>
<path d="M900.563 1389.98V1391.35H966.589L968.102 1389.98H900.563Z" fill="white"/>
<path d="M900.563 1391.35V1392.72H965.087L966.589 1391.35H900.563Z" fill="white"/>
<path d="M900.563 1392.72V1394.09H963.574L965.087 1392.72H900.563Z" fill="white"/>
<path d="M900.563 1394.09V1395.46H962.062L963.574 1394.09H900.563Z" fill="white"/>
<path d="M900.563 1395.46V1396.83H960.559L962.061 1395.46H900.563Z" fill="white"/>
<path d="M900.563 1396.83V1398.2H959.047L960.56 1396.83H900.563Z" fill="white"/>
<path d="M900.563 1398.2V1399.57H957.534L959.047 1398.2H900.563Z" fill="white"/>
<path d="M900.563 1399.57V1400.94H956.032L957.534 1399.57H900.563Z" fill="white"/>
<path d="M900.563 1400.94V1402.31H954.519L956.032 1400.94H900.563Z" fill="white"/>
<path d="M900.563 1402.31V1403.68H953.006L954.519 1402.31H900.563Z" fill="white"/>
<path d="M900.563 1403.68V1405.05H951.505L953.006 1403.68H900.563Z" fill="white"/>
<path d="M900.563 1405.05V1406.42H949.992L951.504 1405.05H900.563Z" fill="white"/>
<path d="M900.563 1406.42V1407.79H948.478L949.991 1406.42H900.563Z" fill="white"/>
<path d="M900.563 1407.79V1409.16H946.977L948.479 1407.79H900.563Z" fill="white"/>
<path d="M900.563 1409.16V1410.53H945.464L946.977 1409.16H900.563Z" fill="white"/>
<path d="M900.563 1410.53V1411.9H943.951L945.464 1410.53H900.563Z" fill="white"/>
<path d="M900.563 1411.9V1413.27H942.449L943.951 1411.9H900.563Z" fill="white"/>
<path d="M900.563 1413.27V1414.64H940.936L942.449 1413.27H900.563Z" fill="white"/>
<path d="M900.563 1414.64V1416.01H939.423L940.936 1414.64H900.563Z" fill="white"/>
<path d="M900.563 1416.01V1417.38H937.921L939.423 1416.01H900.563Z" fill="white"/>
<path d="M900.563 1417.38V1418.75H936.409L937.922 1417.38H900.563Z" fill="white"/>
<path d="M900.563 1418.75V1420.12H934.896L936.408 1418.75H900.563Z" fill="white"/>
<path d="M900.563 1420.12V1421.49H933.394L934.896 1420.12H900.563Z" fill="white"/>
<path d="M900.563 1421.49V1422.86H931.881L933.394 1421.49H900.563Z" fill="white"/>
<path d="M900.563 1422.86V1424.23H930.368L931.881 1422.86H900.563Z" fill="white"/>
<path d="M900.563 1424.23V1425.6H928.866L930.368 1424.23H900.563Z" fill="white"/>
<path d="M900.563 1425.6V1426.97H927.353L928.866 1425.6H900.563Z" fill="white"/>
<path d="M900.563 1426.97V1428.34H925.841L927.354 1426.97H900.563Z" fill="white"/>
<path d="M900.563 1428.34V1429.71H924.338L925.84 1428.34H900.563Z" fill="white"/>
<path d="M900.563 1429.71V1431.08H922.826L924.339 1429.71H900.563Z" fill="white"/>
<path d="M900.563 1431.08V1432.45H921.313L922.826 1431.08H900.563Z" fill="white"/>
<path d="M900.563 1432.45V1433.82H919.811L921.313 1432.45H900.563Z" fill="white"/>
<path d="M900.563 1433.82V1451.29L919.811 1433.82H900.563Z" fill="white"/>
<path d="M1073.37 1332.64V1433.48L900.563 1590.37V1488.28L1073.37 1332.64Z" fill="white"/>
<path d="M1073.37 1332.64L1061.97 1342.91H1073.37V1332.64Z" fill="white"/>
<path d="M1073.37 1342.91H1061.97L1060.26 1344.45H1073.37V1342.91Z" fill="white"/>
<path d="M1073.37 1344.45H1060.26L1058.54 1345.99H1073.37V1344.45Z" fill="white"/>
<path d="M1073.37 1345.99H1058.54L1056.83 1347.53H1073.37V1345.99Z" fill="white"/>
<path d="M1073.37 1347.53H1056.83L1055.12 1349.08H1073.37V1347.53Z" fill="white"/>
<path d="M1073.37 1349.08H1055.12L1053.42 1350.62H1073.37V1349.08Z" fill="white"/>
<path d="M1073.37 1350.62H1053.42L1051.71 1352.16H1073.37V1350.62Z" fill="white"/>
<path d="M1073.37 1352.16H1051.71L1050 1353.7H1073.37V1352.16Z" fill="white"/>
<path d="M1073.37 1353.7H1050L1048.28 1355.24H1073.37V1353.7Z" fill="white"/>
<path d="M1073.37 1355.24H1048.28L1046.57 1356.78H1073.37V1355.24Z" fill="white"/>
<path d="M1073.37 1356.78H1046.57L1044.86 1358.32H1073.37V1356.78Z" fill="white"/>
<path d="M1073.37 1358.32H1044.86L1043.15 1359.86H1073.37V1358.32Z" fill="white"/>
<path d="M1073.37 1359.86H1043.15L1041.44 1361.39H1073.37V1359.86Z" fill="white"/>
<path d="M1073.37 1361.4H1041.44L1039.73 1362.94H1073.37V1361.4Z" fill="white"/>
<path d="M1073.37 1362.94H1039.73L1038.01 1364.48H1073.37V1362.94Z" fill="white"/>
<path d="M1073.37 1364.48H1038.01L1036.3 1366.02H1073.37V1364.48Z" fill="white"/>
<path d="M1073.37 1366.02H1036.3L1034.59 1367.56H1073.37V1366.02Z" fill="white"/>
<path d="M1073.37 1367.56H1034.59L1032.88 1369.1H1073.37V1367.56Z" fill="white"/>
<path d="M1073.37 1369.1H1032.88L1031.17 1370.64H1073.37V1369.1Z" fill="white"/>
<path d="M1073.37 1370.64H1031.17L1029.46 1372.18H1073.37V1370.64Z" fill="white"/>
<path d="M1073.37 1372.18H1029.46L1027.74 1373.73H1073.37V1372.18Z" fill="white"/>
<path d="M1073.37 1373.73H1027.74L1026.03 1375.27H1073.37V1373.73Z" fill="white"/>
<path d="M1073.37 1375.27H1026.03L1024.33 1376.81H1073.37V1375.27Z" fill="white"/>
<path d="M1073.37 1376.81H1024.33L1022.62 1378.35H1073.37V1376.81Z" fill="white"/>
<path d="M1073.37 1378.35H1022.62L1020.91 1379.89H1073.37V1378.35Z" fill="white"/>
<path d="M1073.37 1379.89H1020.91L1019.2 1381.43H1073.37V1379.89Z" fill="white"/>
<path d="M1073.37 1381.43H1019.2L1017.49 1382.97H1073.37V1381.43Z" fill="white"/>
<path d="M1073.37 1382.97H1017.49L1015.77 1384.51H1073.37V1382.97Z" fill="white"/>
<path d="M1073.37 1384.51H1015.77L1014.06 1386.06H1073.37V1384.51Z" fill="white"/>
<path d="M1073.37 1386.06H1014.06L1012.35 1387.6H1073.37V1386.06Z" fill="white"/>
<path d="M1073.37 1387.6H1012.35L1010.64 1389.14H1073.37V1387.6Z" fill="white"/>
<path d="M1073.37 1389.14H1010.64L1008.93 1390.68H1073.37V1389.14Z" fill="white"/>
<path d="M1073.37 1390.68H1008.93L1007.22 1392.22H1073.37V1390.68Z" fill="white"/>
<path d="M1073.37 1392.22H1007.22L1005.5 1393.76H1073.37V1392.22Z" fill="white"/>
<path d="M1073.37 1393.76H1005.5L1003.79 1395.3H1073.37V1393.76Z" fill="white"/>
<path d="M1073.37 1395.3H1003.79L1002.08 1396.84H1073.37V1395.3Z" fill="white"/>
<path d="M1073.37 1396.84H1002.08L1000.37 1398.39H1073.37V1396.84Z" fill="white"/>
<path d="M1073.37 1398.39H1000.37L998.657 1399.93H1073.37V1398.39Z" fill="white"/>
<path d="M1073.37 1399.93H998.657L996.957 1401.47H1073.37V1399.93Z" fill="white"/>
<path d="M1073.37 1401.47H996.957L995.245 1403.01H1073.37V1401.47Z" fill="white"/>
<path d="M1073.37 1403.01H995.245L993.534 1404.55H1073.37V1403.01Z" fill="white"/>
<path d="M1073.37 1404.55H993.534L991.822 1406.09H1073.37V1404.55Z" fill="white"/>
<path d="M1073.37 1406.09H991.822L990.11 1407.63H1073.37V1406.09Z" fill="white"/>
<path d="M1073.37 1407.63H990.11L988.399 1409.17H1073.37V1407.63Z" fill="white"/>
<path d="M1073.37 1409.17H988.399L986.687 1410.72H1073.37V1409.17Z" fill="white"/>
<path d="M1073.37 1410.72H986.687L984.975 1412.26H1073.37V1410.72Z" fill="white"/>
<path d="M1073.37 1412.26H984.975L983.264 1413.8H1073.37V1412.26Z" fill="white"/>
<path d="M1073.37 1413.8H983.264L981.552 1415.34H1073.37V1413.8Z" fill="white"/>
<path d="M1073.37 1415.34H981.552L979.84 1416.88H1073.37V1415.34Z" fill="white"/>
<path d="M1073.37 1416.88H979.84L978.129 1418.42H1073.37V1416.88Z" fill="white"/>
<path d="M1073.37 1418.42H978.129L976.417 1419.96H1073.37V1418.42Z" fill="white"/>
<path d="M1073.37 1419.96H976.417L974.705 1421.5H1073.37V1419.96Z" fill="white"/>
<path d="M1073.37 1421.5H974.705L972.994 1423.05H1073.37V1421.5Z" fill="white"/>
<path d="M1073.37 1423.05H972.994L971.282 1424.59H1073.37V1423.05Z" fill="white"/>
<path d="M1073.37 1424.59H971.282L969.57 1426.13H1073.37V1424.59Z" fill="white"/>
<path d="M1073.37 1426.13H969.57L967.87 1427.67H1073.37V1426.13Z" fill="white"/>
<path d="M1073.37 1427.67H967.87L966.158 1429.21H1073.37V1427.67Z" fill="white"/>
<path d="M1073.37 1429.21H966.158L964.446 1430.75H1073.37V1429.21Z" fill="white"/>
<path d="M1073.37 1430.75H964.446L962.735 1432.29H1073.37V1430.75Z" fill="white"/>
<path d="M1073.37 1432.29H962.735L961.023 1433.84H1072.99L1073.37 1433.48V1432.29Z" fill="white"/>
<path d="M961.023 1433.83L959.312 1435.38H1071.29L1072.99 1433.83H961.023Z" fill="white"/>
<path d="M959.312 1435.38L957.6 1436.92H1069.59L1071.29 1435.38H959.312Z" fill="white"/>
<path d="M957.6 1436.92L955.889 1438.46H1067.89L1069.59 1436.92H957.6Z" fill="white"/>
<path d="M955.888 1438.46L954.177 1440H1066.2L1067.89 1438.46H955.888Z" fill="white"/>
<path d="M954.177 1440L952.465 1441.54H1064.5L1066.2 1440H954.177Z" fill="white"/>
<path d="M952.465 1441.54L950.753 1443.08H1062.79L1064.5 1441.54H952.465Z" fill="white"/>
<path d="M950.753 1443.08L949.042 1444.62H1061.11L1062.79 1443.08H950.753Z" fill="white"/>
<path d="M949.041 1444.62L947.33 1446.17H1059.4L1061.11 1444.62H949.041Z" fill="white"/>
<path d="M947.33 1446.17L945.618 1447.71H1057.7L1059.4 1446.17H947.33Z" fill="white"/>
<path d="M945.619 1447.71L943.907 1449.24H1056L1057.7 1447.71H945.619Z" fill="white"/>
<path d="M943.907 1449.24L942.195 1450.78H1054.31L1056.01 1449.24H943.907Z" fill="white"/>
<path d="M942.195 1450.79L940.484 1452.32H1052.61L1054.31 1450.79H942.195Z" fill="white"/>
<path d="M940.483 1452.32L938.772 1453.86H1050.91L1052.61 1452.32H940.483Z" fill="white"/>
<path d="M938.783 1453.86L937.071 1455.4H1049.22L1050.91 1453.86H938.783Z" fill="white"/>
<path d="M937.071 1455.4L935.36 1456.94H1047.52L1049.22 1455.4H937.071Z" fill="white"/>
<path d="M935.36 1456.94L933.648 1458.48H1045.82L1047.52 1456.94H935.36Z" fill="white"/>
<path d="M933.648 1458.48L931.936 1460.03H1044.12L1045.82 1458.48H933.648Z" fill="white"/>
<path d="M931.936 1460.03L930.224 1461.57H1042.43L1044.13 1460.03H931.936Z" fill="white"/>
<path d="M930.224 1461.57L928.513 1463.11H1040.73L1042.43 1461.57H930.224Z" fill="white"/>
<path d="M928.513 1463.11L926.801 1464.65H1039.03L1040.73 1463.11H928.513Z" fill="white"/>
<path d="M926.801 1464.65L925.277 1466.02H1037.53L1039.03 1464.65H926.801Z" fill="white"/>
<path d="M925.277 1466.02L923.764 1467.39H1036.02L1037.53 1466.02H925.277Z" fill="white"/>
<path d="M923.753 1467.39L922.24 1468.76H1034.5L1036.02 1467.39H923.753Z" fill="white"/>
<path d="M922.241 1468.76L920.717 1470.13H1033L1034.5 1468.76H922.241Z" fill="white"/>
<path d="M920.716 1470.13L919.192 1471.5H1031.49L1033 1470.13H920.716Z" fill="white"/>
<path d="M919.193 1471.5L917.669 1472.87H1029.98L1031.49 1471.5H919.193Z" fill="white"/>
<path d="M917.669 1472.87L916.156 1474.24H1028.47L1029.98 1472.87H917.669Z" fill="white"/>
<path d="M916.156 1474.24L914.632 1475.61H1026.96L1028.47 1474.24H916.156Z" fill="white"/>
<path d="M914.632 1475.61L913.108 1476.99H1025.45L1026.96 1475.61H914.632Z" fill="white"/>
<path d="M913.108 1476.99L911.584 1478.35H1023.95L1025.45 1476.99H913.108Z" fill="white"/>
<path d="M911.584 1478.35L910.071 1479.72H1022.43L1023.95 1478.35H911.584Z" fill="white"/>
<path d="M910.071 1479.72L908.547 1481.1H1020.92L1022.43 1479.72H910.071Z" fill="white"/>
<path d="M908.547 1481.1L907.023 1482.47H1019.42L1020.92 1481.1H908.547Z" fill="white"/>
<path d="M907.023 1482.47L905.499 1483.84H1017.91L1019.42 1482.47H907.023Z" fill="white"/>
<path d="M905.5 1483.83L903.987 1485.21H1016.39L1017.91 1483.83H905.5Z" fill="white"/>
<path d="M903.986 1485.21L902.463 1486.58H1014.89L1016.39 1485.21H903.986Z" fill="white"/>
<path d="M902.462 1486.58L900.938 1487.95H1013.38L1014.89 1486.58H902.462Z" fill="white"/>
<path d="M900.939 1487.95L900.563 1488.28V1489.32H1011.87L1013.38 1487.95H900.939Z" fill="white"/>
<path d="M900.563 1489.32V1490.69H1010.36L1011.86 1489.32H900.563Z" fill="white"/>
<path d="M900.563 1490.69V1492.06H1008.85L1010.36 1490.69H900.563Z" fill="white"/>
<path d="M900.563 1492.06V1493.43H1007.34L1008.85 1492.06H900.563Z" fill="white"/>
<path d="M900.563 1493.43V1494.8H1005.84L1007.34 1493.43H900.563Z" fill="white"/>
<path d="M900.563 1494.8V1496.17H1004.32L1005.84 1494.8H900.563Z" fill="white"/>
<path d="M900.563 1496.17V1497.54H1002.81L1004.32 1496.17H900.563Z" fill="white"/>
<path d="M900.563 1497.54V1498.91H1001.31L1002.81 1497.54H900.563Z" fill="white"/>
<path d="M900.563 1498.91V1500.28H999.795L1001.31 1498.91H900.563Z" fill="white"/>
<path d="M900.564 1500.28V1501.65H998.283L999.795 1500.28H900.564Z" fill="white"/>
<path d="M900.563 1501.65V1503.02H996.78L998.282 1501.65H900.563Z" fill="white"/>
<path d="M900.564 1503.02V1504.39H995.268L996.781 1503.02H900.564Z" fill="white"/>
<path d="M900.563 1504.39V1505.76H993.755L995.268 1504.39H900.563Z" fill="white"/>
<path d="M900.563 1505.76V1507.13H992.253L993.754 1505.76H900.563Z" fill="white"/>
<path d="M900.563 1507.13V1508.5H990.74L992.253 1507.13H900.563Z" fill="white"/>
<path d="M900.563 1508.5V1509.87H989.227L990.74 1508.5H900.563Z" fill="white"/>
<path d="M900.563 1509.87V1511.24H987.725L989.227 1509.87H900.563Z" fill="white"/>
<path d="M900.563 1511.24V1512.61H986.212L987.725 1511.24H900.563Z" fill="white"/>
<path d="M900.563 1512.61V1513.98H984.699L986.212 1512.61H900.563Z" fill="white"/>
<path d="M900.563 1513.98V1515.35H983.198L984.699 1513.98H900.563Z" fill="white"/>
<path d="M900.563 1515.35V1516.72H981.685L983.198 1515.35H900.563Z" fill="white"/>
<path d="M900.563 1516.72V1518.09H980.172L981.685 1516.72H900.563Z" fill="white"/>
<path d="M900.563 1518.09V1519.46H978.67L980.172 1518.09H900.563Z" fill="white"/>
<path d="M900.563 1519.46V1520.83H977.157L978.67 1519.46H900.563Z" fill="white"/>
<path d="M900.563 1520.83V1522.2H975.644L977.157 1520.83H900.563Z" fill="white"/>
<path d="M900.563 1522.2V1523.57H974.142L975.644 1522.2H900.563Z" fill="white"/>
<path d="M900.563 1523.57V1524.94H972.63L974.143 1523.57H900.563Z" fill="white"/>
<path d="M900.563 1524.94V1526.31H971.116L972.629 1524.94H900.563Z" fill="white"/>
<path d="M900.563 1526.31V1527.68H969.615L971.117 1526.31H900.563Z" fill="white"/>
<path d="M900.563 1527.68V1529.05H968.102L969.615 1527.68H900.563Z" fill="white"/>
<path d="M900.563 1529.05V1530.42H966.589L968.102 1529.05H900.563Z" fill="white"/>
<path d="M900.563 1530.42V1531.79H965.087L966.589 1530.42H900.563Z" fill="white"/>
<path d="M900.563 1531.79V1533.16H963.574L965.087 1531.79H900.563Z" fill="white"/>
<path d="M900.563 1533.16V1534.53H962.062L963.574 1533.16H900.563Z" fill="white"/>
<path d="M900.563 1534.53V1535.9H960.559L962.061 1534.53H900.563Z" fill="white"/>
<path d="M900.563 1535.9V1537.27H959.047L960.56 1535.9H900.563Z" fill="white"/>
<path d="M900.563 1537.27V1538.64H957.534L959.047 1537.27H900.563Z" fill="white"/>
<path d="M900.563 1538.64V1540.01H956.032L957.534 1538.64H900.563Z" fill="white"/>
<path d="M900.563 1540.01V1541.38H954.519L956.032 1540.01H900.563Z" fill="white"/>
<path d="M900.563 1541.38V1542.75H953.006L954.519 1541.38H900.563Z" fill="white"/>
<path d="M900.563 1542.75V1544.12H951.505L953.006 1542.75H900.563Z" fill="white"/>
<path d="M900.563 1544.12V1545.49H949.992L951.504 1544.12H900.563Z" fill="white"/>
<path d="M900.563 1545.49V1546.86H948.478L949.991 1545.49H900.563Z" fill="white"/>
<path d="M900.563 1546.86V1548.23H946.977L948.479 1546.86H900.563Z" fill="white"/>
<path d="M900.563 1548.23V1549.6H945.464L946.977 1548.23H900.563Z" fill="white"/>
<path d="M900.563 1549.6V1550.97H943.951L945.464 1549.6H900.563Z" fill="white"/>
<path d="M900.563 1550.97V1552.34H942.449L943.951 1550.97H900.563Z" fill="white"/>
<path d="M900.563 1552.34V1553.71H940.936L942.449 1552.34H900.563Z" fill="white"/>
<path d="M900.563 1553.71V1555.08H939.423L940.936 1553.71H900.563Z" fill="white"/>
<path d="M900.563 1555.08V1556.45H937.921L939.423 1555.08H900.563Z" fill="white"/>
<path d="M900.563 1556.45V1557.82H936.409L937.922 1556.45H900.563Z" fill="white"/>
<path d="M900.563 1557.82V1559.19H934.896L936.408 1557.82H900.563Z" fill="white"/>
<path d="M900.563 1559.19V1560.56H933.394L934.896 1559.19H900.563Z" fill="white"/>
<path d="M900.563 1560.56V1561.93H931.881L933.394 1560.56H900.563Z" fill="white"/>
<path d="M900.563 1561.93V1563.3H930.368L931.881 1561.93H900.563Z" fill="white"/>
<path d="M900.563 1563.3V1564.67H928.866L930.368 1563.3H900.563Z" fill="white"/>
<path d="M900.563 1564.67V1566.04H927.353L928.866 1564.67H900.563Z" fill="white"/>
<path d="M900.563 1566.04V1567.41H925.841L927.354 1566.04H900.563Z" fill="white"/>
<path d="M900.563 1567.41V1568.78H924.338L925.84 1567.41H900.563Z" fill="white"/>
<path d="M900.563 1568.78V1570.15H922.826L924.339 1568.78H900.563Z" fill="white"/>
<path d="M900.563 1570.15V1571.52H921.313L922.826 1570.15H900.563Z" fill="white"/>
<path d="M900.563 1571.52V1572.89H919.811L921.313 1571.52H900.563Z" fill="white"/>
<path d="M900.563 1572.89V1590.37L919.811 1572.89H900.563Z" fill="white"/>
<path d="M1073.37 1471.7V1572.55L900.563 1729.44V1627.35L1073.37 1471.7Z" fill="white"/>
<path d="M1073.37 1471.7L1061.97 1481.98H1073.37V1471.7Z" fill="white"/>
<path d="M1073.37 1481.98H1061.97L1060.26 1483.52H1073.37V1481.98Z" fill="white"/>
<path d="M1073.37 1483.52H1060.26L1058.54 1485.06H1073.37V1483.52Z" fill="white"/>
<path d="M1073.37 1485.06H1058.54L1056.83 1486.6H1073.37V1485.06Z" fill="white"/>
<path d="M1073.37 1486.6H1056.83L1055.12 1488.14H1073.37V1486.6Z" fill="white"/>
<path d="M1073.37 1488.14H1055.12L1053.42 1489.68H1073.37V1488.14Z" fill="white"/>
<path d="M1073.37 1489.68H1053.42L1051.71 1491.23H1073.37V1489.68Z" fill="white"/>
<path d="M1073.37 1491.23H1051.71L1050 1492.77H1073.37V1491.23Z" fill="white"/>
<path d="M1073.37 1492.77H1050L1048.28 1494.31H1073.37V1492.77Z" fill="white"/>
<path d="M1073.37 1494.31H1048.28L1046.57 1495.85H1073.37V1494.31Z" fill="white"/>
<path d="M1073.37 1495.85H1046.57L1044.86 1497.39H1073.37V1495.85Z" fill="white"/>
<path d="M1073.37 1497.39H1044.86L1043.15 1498.93H1073.37V1497.39Z" fill="white"/>
<path d="M1073.37 1498.93H1043.15L1041.44 1500.47H1073.37V1498.93Z" fill="white"/>
<path d="M1073.37 1500.47H1041.44L1039.73 1502.01H1073.37V1500.47Z" fill="white"/>
<path d="M1073.37 1502.02H1039.73L1038.01 1503.56H1073.37V1502.02Z" fill="white"/>
<path d="M1073.37 1503.56H1038.01L1036.3 1505.1H1073.37V1503.56Z" fill="white"/>
<path d="M1073.37 1505.1H1036.3L1034.59 1506.64H1073.37V1505.1Z" fill="white"/>
<path d="M1073.37 1506.64H1034.59L1032.88 1508.18H1073.37V1506.64Z" fill="white"/>
<path d="M1073.37 1508.18H1032.88L1031.17 1509.72H1073.37V1508.18Z" fill="white"/>
<path d="M1073.37 1509.72H1031.17L1029.46 1511.26H1073.37V1509.72Z" fill="white"/>
<path d="M1073.37 1511.26H1029.46L1027.74 1512.8H1073.37V1511.26Z" fill="white"/>
<path d="M1073.37 1512.8H1027.74L1026.03 1514.35H1073.37V1512.8Z" fill="white"/>
<path d="M1073.37 1514.34H1026.03L1024.33 1515.88H1073.37V1514.34Z" fill="white"/>
<path d="M1073.37 1515.88H1024.33L1022.62 1517.42H1073.37V1515.88Z" fill="white"/>
<path d="M1073.37 1517.42H1022.62L1020.91 1518.96H1073.37V1517.42Z" fill="white"/>
<path d="M1073.37 1518.96H1020.91L1019.2 1520.5H1073.37V1518.96Z" fill="white"/>
<path d="M1073.37 1520.5H1019.2L1017.49 1522.04H1073.37V1520.5Z" fill="white"/>
<path d="M1073.37 1522.04H1017.49L1015.77 1523.58H1073.37V1522.04Z" fill="white"/>
<path d="M1073.37 1523.58H1015.77L1014.06 1525.12H1073.37V1523.58Z" fill="white"/>
<path d="M1073.37 1525.12H1014.06L1012.35 1526.66H1073.37V1525.12Z" fill="white"/>
<path d="M1073.37 1526.67H1012.35L1010.64 1528.21H1073.37V1526.67Z" fill="white"/>
<path d="M1073.37 1528.21H1010.64L1008.93 1529.75H1073.37V1528.21Z" fill="white"/>
<path d="M1073.37 1529.75H1008.93L1007.22 1531.29H1073.37V1529.75Z" fill="white"/>
<path d="M1073.37 1531.29H1007.22L1005.5 1532.83H1073.37V1531.29Z" fill="white"/>
<path d="M1073.37 1532.83H1005.5L1003.79 1534.37H1073.37V1532.83Z" fill="white"/>
<path d="M1073.37 1534.37H1003.79L1002.08 1535.91H1073.37V1534.37Z" fill="white"/>
<path d="M1073.37 1535.91H1002.08L1000.37 1537.45H1073.37V1535.91Z" fill="white"/>
<path d="M1073.37 1537.45H1000.37L998.657 1538.99H1073.37V1537.45Z" fill="white"/>
<path d="M1073.37 1538.99H998.657L996.957 1540.54H1073.37V1538.99Z" fill="white"/>
<path d="M1073.37 1540.54H996.957L995.245 1542.08H1073.37V1540.54Z" fill="white"/>
<path d="M1073.37 1542.08H995.245L993.534 1543.62H1073.37V1542.08Z" fill="white"/>
<path d="M1073.37 1543.62H993.534L991.822 1545.16H1073.37V1543.62Z" fill="white"/>
<path d="M1073.37 1545.16H991.822L990.11 1546.7H1073.37V1545.16Z" fill="white"/>
<path d="M1073.37 1546.7H990.11L988.399 1548.24H1073.37V1546.7Z" fill="white"/>
<path d="M1073.37 1548.24H988.399L986.687 1549.78H1073.37V1548.24Z" fill="white"/>
<path d="M1073.37 1549.78H986.687L984.975 1551.32H1073.37V1549.78Z" fill="white"/>
<path d="M1073.37 1551.32H984.975L983.264 1552.87H1073.37V1551.32Z" fill="white"/>
<path d="M1073.37 1552.87H983.264L981.552 1554.41H1073.37V1552.87Z" fill="white"/>
<path d="M1073.37 1554.41H981.552L979.84 1555.95H1073.37V1554.41Z" fill="white"/>
<path d="M1073.37 1555.95H979.84L978.129 1557.49H1073.37V1555.95Z" fill="white"/>
<path d="M1073.37 1557.49H978.129L976.417 1559.03H1073.37V1557.49Z" fill="white"/>
<path d="M1073.37 1559.03H976.417L974.705 1560.57H1073.37V1559.03Z" fill="white"/>
<path d="M1073.37 1560.57H974.705L972.994 1562.11H1073.37V1560.57Z" fill="white"/>
<path d="M1073.37 1562.11H972.994L971.282 1563.66H1073.37V1562.11Z" fill="white"/>
<path d="M1073.37 1563.66H971.282L969.57 1565.2H1073.37V1563.66Z" fill="white"/>
<path d="M1073.37 1565.2H969.57L967.87 1566.74H1073.37V1565.2Z" fill="white"/>
<path d="M1073.37 1566.74H967.87L966.158 1568.28H1073.37V1566.74Z" fill="white"/>
<path d="M1073.37 1568.28H966.158L964.446 1569.82H1073.37V1568.28Z" fill="white"/>
<path d="M1073.37 1569.82H964.446L962.735 1571.36H1073.37V1569.82Z" fill="white"/>
<path d="M1073.37 1571.36H962.735L961.023 1572.9H1072.99L1073.37 1572.55V1571.36Z" fill="white"/>
<path d="M961.023 1572.9L959.312 1574.44H1071.29L1072.99 1572.9H961.023Z" fill="white"/>
<path d="M959.312 1574.44L957.6 1575.99H1069.59L1071.29 1574.44H959.312Z" fill="white"/>
<path d="M957.6 1575.99L955.889 1577.53H1067.89L1069.59 1575.99H957.6Z" fill="white"/>
<path d="M955.888 1577.53L954.177 1579.07H1066.2L1067.89 1577.53H955.888Z" fill="white"/>
<path d="M954.177 1579.07L952.465 1580.61H1064.5L1066.2 1579.07H954.177Z" fill="white"/>
<path d="M952.465 1580.61L950.753 1582.15H1062.79L1064.5 1580.61H952.465Z" fill="white"/>
<path d="M950.753 1582.15L949.042 1583.69H1061.11L1062.79 1582.15H950.753Z" fill="white"/>
<path d="M949.041 1583.69L947.33 1585.23H1059.4L1061.11 1583.69H949.041Z" fill="white"/>
<path d="M947.33 1585.23L945.618 1586.77H1057.7L1059.4 1585.23H947.33Z" fill="white"/>
<path d="M945.619 1586.77L943.907 1588.31H1056L1057.7 1586.77H945.619Z" fill="white"/>
<path d="M943.907 1588.32L942.195 1589.86H1054.31L1056.01 1588.32H943.907Z" fill="white"/>
<path d="M942.195 1589.86L940.484 1591.4H1052.61L1054.31 1589.86H942.195Z" fill="white"/>
<path d="M940.483 1591.4L938.772 1592.94H1050.91L1052.61 1591.4H940.483Z" fill="white"/>
<path d="M938.783 1592.94L937.071 1594.48H1049.22L1050.91 1592.94H938.783Z" fill="white"/>
<path d="M937.071 1594.48L935.36 1596.02H1047.52L1049.22 1594.48H937.071Z" fill="white"/>
<path d="M935.36 1596.02L933.648 1597.56H1045.82L1047.52 1596.02H935.36Z" fill="white"/>
<path d="M933.648 1597.56L931.936 1599.1H1044.12L1045.82 1597.56H933.648Z" fill="white"/>
<path d="M931.936 1599.1L930.224 1600.65H1042.43L1044.13 1599.1H931.936Z" fill="white"/>
<path d="M930.224 1600.65L928.513 1602.19H1040.73L1042.43 1600.65H930.224Z" fill="white"/>
<path d="M928.513 1602.19L926.801 1603.72H1039.03L1040.73 1602.19H928.513Z" fill="white"/>
<path d="M926.801 1603.72L925.277 1605.1H1037.53L1039.03 1603.72H926.801Z" fill="white"/>
<path d="M925.277 1605.1L923.764 1606.46H1036.02L1037.53 1605.1H925.277Z" fill="white"/>
<path d="M923.753 1606.46L922.24 1607.83H1034.5L1036.02 1606.46H923.753Z" fill="white"/>
<path d="M922.241 1607.83L920.717 1609.21H1033L1034.5 1607.83H922.241Z" fill="white"/>
<path d="M920.716 1609.21L919.192 1610.58H1031.49L1033 1609.21H920.716Z" fill="white"/>
<path d="M919.193 1610.58L917.68 1611.95H1029.98L1031.49 1610.58H919.193Z" fill="white"/>
<path d="M917.68 1611.94L916.156 1613.32H1028.47L1029.98 1611.94H917.68Z" fill="white"/>
<path d="M916.156 1613.32L914.632 1614.69H1026.96L1028.47 1613.32H916.156Z" fill="white"/>
<path d="M914.632 1614.69L913.108 1616.06H1025.45L1026.96 1614.69H914.632Z" fill="white"/>
<path d="M913.108 1616.06L911.584 1617.43H1023.95L1025.45 1616.06H913.108Z" fill="white"/>
<path d="M911.584 1617.43L910.071 1618.8H1022.43L1023.95 1617.43H911.584Z" fill="white"/>
<path d="M910.071 1618.8L908.547 1620.17H1020.92L1022.43 1618.8H910.071Z" fill="white"/>
<path d="M908.547 1620.17L907.023 1621.54H1019.42L1020.92 1620.17H908.547Z" fill="white"/>
<path d="M907.023 1621.54L905.499 1622.91H1017.91L1019.42 1621.54H907.023Z" fill="white"/>
<path d="M905.5 1622.91L903.987 1624.28H1016.39L1017.91 1622.91H905.5Z" fill="white"/>
<path d="M903.986 1624.28L902.463 1625.65H1014.89L1016.39 1624.28H903.986Z" fill="white"/>
<path d="M902.462 1625.65L900.938 1627.02H1013.38L1014.89 1625.65H902.462Z" fill="white"/>
<path d="M900.939 1627.02L900.563 1627.35V1628.39H1011.87L1013.38 1627.02H900.939Z" fill="white"/>
<path d="M900.563 1628.39V1629.76H1010.36L1011.86 1628.39H900.563Z" fill="white"/>
<path d="M900.563 1629.76V1631.13H1008.85L1010.36 1629.76H900.563Z" fill="white"/>
<path d="M900.563 1631.13V1632.5H1007.34L1008.85 1631.13H900.563Z" fill="white"/>
<path d="M900.563 1632.5V1633.87H1005.84L1007.34 1632.5H900.563Z" fill="white"/>
<path d="M900.563 1633.87V1635.24H1004.32L1005.84 1633.87H900.563Z" fill="white"/>
<path d="M900.563 1635.24V1636.61H1002.81L1004.32 1635.24H900.563Z" fill="white"/>
<path d="M900.563 1636.61V1637.98H1001.31L1002.81 1636.61H900.563Z" fill="white"/>
<path d="M900.563 1637.98V1639.35H999.795L1001.31 1637.98H900.563Z" fill="white"/>
<path d="M900.564 1639.35V1640.72H998.283L999.795 1639.35H900.564Z" fill="white"/>
<path d="M900.563 1640.72V1642.09H996.78L998.282 1640.72H900.563Z" fill="white"/>
<path d="M900.564 1642.09V1643.46H995.268L996.781 1642.09H900.564Z" fill="white"/>
<path d="M900.563 1643.46V1644.83H993.755L995.268 1643.46H900.563Z" fill="white"/>
<path d="M900.563 1644.83V1646.2H992.253L993.754 1644.83H900.563Z" fill="white"/>
<path d="M900.563 1646.2V1647.57H990.74L992.253 1646.2H900.563Z" fill="white"/>
<path d="M900.563 1647.57V1648.94H989.227L990.74 1647.57H900.563Z" fill="white"/>
<path d="M900.563 1648.94V1650.31H987.725L989.227 1648.94H900.563Z" fill="white"/>
<path d="M900.563 1650.31V1651.68H986.212L987.725 1650.31H900.563Z" fill="white"/>
<path d="M900.563 1651.68V1653.05H984.699L986.212 1651.68H900.563Z" fill="white"/>
<path d="M900.563 1653.05V1654.42H983.198L984.699 1653.05H900.563Z" fill="white"/>
<path d="M900.563 1654.42V1655.79H981.685L983.198 1654.42H900.563Z" fill="white"/>
<path d="M900.563 1655.79V1657.16H980.172L981.685 1655.79H900.563Z" fill="white"/>
<path d="M900.563 1657.16V1658.53H978.67L980.172 1657.16H900.563Z" fill="white"/>
<path d="M900.563 1658.53V1659.9H977.157L978.67 1658.53H900.563Z" fill="white"/>
<path d="M900.563 1659.9V1661.27H975.644L977.157 1659.9H900.563Z" fill="white"/>
<path d="M900.563 1661.27V1662.64H974.142L975.644 1661.27H900.563Z" fill="white"/>
<path d="M900.563 1662.64V1664.01H972.63L974.143 1662.64H900.563Z" fill="white"/>
<path d="M900.563 1664.01V1665.38H971.116L972.629 1664.01H900.563Z" fill="white"/>
<path d="M900.563 1665.38V1666.75H969.615L971.117 1665.38H900.563Z" fill="white"/>
<path d="M900.563 1666.75V1668.12H968.102L969.615 1666.75H900.563Z" fill="white"/>
<path d="M900.563 1668.12V1669.49H966.589L968.102 1668.12H900.563Z" fill="white"/>
<path d="M900.563 1669.49V1670.86H965.087L966.589 1669.49H900.563Z" fill="white"/>
<path d="M900.563 1670.86V1672.23H963.574L965.087 1670.86H900.563Z" fill="white"/>
<path d="M900.563 1672.23V1673.6H962.062L963.574 1672.23H900.563Z" fill="white"/>
<path d="M900.563 1673.6V1674.97H960.559L962.061 1673.6H900.563Z" fill="white"/>
<path d="M900.563 1674.97V1676.34H959.047L960.56 1674.97H900.563Z" fill="white"/>
<path d="M900.563 1676.34V1677.71H957.534L959.047 1676.34H900.563Z" fill="white"/>
<path d="M900.563 1677.71V1679.08H956.032L957.534 1677.71H900.563Z" fill="white"/>
<path d="M900.563 1679.08V1680.45H954.519L956.032 1679.08H900.563Z" fill="white"/>
<path d="M900.563 1680.45V1681.82H953.006L954.519 1680.45H900.563Z" fill="white"/>
<path d="M900.563 1681.82V1683.19H951.505L953.006 1681.82H900.563Z" fill="white"/>
<path d="M900.563 1683.19V1684.56H949.992L951.504 1683.19H900.563Z" fill="white"/>
<path d="M900.563 1684.56V1685.93H948.478L949.991 1684.56H900.563Z" fill="white"/>
<path d="M900.563 1685.93V1687.3H946.977L948.479 1685.93H900.563Z" fill="white"/>
<path d="M900.563 1687.3V1688.67H945.464L946.977 1687.3H900.563Z" fill="white"/>
<path d="M900.563 1688.67V1690.04H943.951L945.464 1688.67H900.563Z" fill="white"/>
<path d="M900.563 1690.04V1691.41H942.449L943.951 1690.04H900.563Z" fill="white"/>
<path d="M900.563 1691.41V1692.78H940.936L942.449 1691.41H900.563Z" fill="white"/>
<path d="M900.563 1692.78V1694.15H939.423L940.936 1692.78H900.563Z" fill="white"/>
<path d="M900.563 1694.15V1695.52H937.921L939.423 1694.15H900.563Z" fill="white"/>
<path d="M900.563 1695.52V1696.89H936.409L937.922 1695.52H900.563Z" fill="white"/>
<path d="M900.563 1696.89V1698.26H934.896L936.408 1696.89H900.563Z" fill="white"/>
<path d="M900.563 1698.26V1699.63H933.394L934.896 1698.26H900.563Z" fill="white"/>
<path d="M900.563 1699.63V1701H931.881L933.394 1699.63H900.563Z" fill="white"/>
<path d="M900.563 1701V1702.37H930.368L931.881 1701H900.563Z" fill="white"/>
<path d="M900.563 1702.37V1703.74H928.866L930.368 1702.37H900.563Z" fill="white"/>
<path d="M900.563 1703.74V1705.11H927.353L928.866 1703.74H900.563Z" fill="white"/>
<path d="M900.563 1705.11V1706.48H925.841L927.354 1705.11H900.563Z" fill="white"/>
<path d="M900.563 1706.48V1707.85H924.338L925.84 1706.48H900.563Z" fill="white"/>
<path d="M900.563 1707.85V1709.22H922.826L924.339 1707.85H900.563Z" fill="white"/>
<path d="M900.563 1709.22V1710.59H921.313L922.826 1709.22H900.563Z" fill="white"/>
<path d="M900.563 1710.59V1711.96H919.811L921.313 1710.59H900.563Z" fill="white"/>
<path d="M900.563 1711.96V1729.44L919.811 1711.96H900.563Z" fill="white"/>
<path d="M1073.37 1610.78V1711.62L900.563 1868.51V1766.43L1073.37 1610.78Z" fill="white"/>
<path d="M1073.37 1610.78L1061.97 1621.05H1073.37V1610.78Z" fill="white"/>
<path d="M1073.37 1621.05H1061.97L1060.26 1622.59H1073.37V1621.05Z" fill="white"/>
<path d="M1073.37 1622.59H1060.26L1058.54 1624.13H1073.37V1622.59Z" fill="white"/>
<path d="M1073.37 1624.13H1058.54L1056.83 1625.67H1073.37V1624.13Z" fill="white"/>
<path d="M1073.37 1625.67H1056.83L1055.12 1627.21H1073.37V1625.67Z" fill="white"/>
<path d="M1073.37 1627.21H1055.12L1053.42 1628.75H1073.37V1627.21Z" fill="white"/>
<path d="M1073.37 1628.75H1053.42L1051.71 1630.29H1073.37V1628.75Z" fill="white"/>
<path d="M1073.37 1630.29H1051.71L1050 1631.83H1073.37V1630.29Z" fill="white"/>
<path d="M1073.37 1631.83H1050L1048.28 1633.38H1073.37V1631.83Z" fill="white"/>
<path d="M1073.37 1633.38H1048.28L1046.57 1634.92H1073.37V1633.38Z" fill="white"/>
<path d="M1073.37 1634.92H1046.57L1044.86 1636.46H1073.37V1634.92Z" fill="white"/>
<path d="M1073.37 1636.46H1044.86L1043.15 1638H1073.37V1636.46Z" fill="white"/>
<path d="M1073.37 1638H1043.15L1041.44 1639.54H1073.37V1638Z" fill="white"/>
<path d="M1073.37 1639.54H1041.44L1039.73 1641.08H1073.37V1639.54Z" fill="white"/>
<path d="M1073.37 1641.08H1039.73L1038.01 1642.62H1073.37V1641.08Z" fill="white"/>
<path d="M1073.37 1642.62H1038.01L1036.3 1644.17H1073.37V1642.62Z" fill="white"/>
<path d="M1073.37 1644.17H1036.3L1034.59 1645.71H1073.37V1644.17Z" fill="white"/>
<path d="M1073.37 1645.71H1034.59L1032.88 1647.25H1073.37V1645.71Z" fill="white"/>
<path d="M1073.37 1647.25H1032.88L1031.17 1648.79H1073.37V1647.25Z" fill="white"/>
<path d="M1073.37 1648.79H1031.17L1029.46 1650.33H1073.37V1648.79Z" fill="white"/>
<path d="M1073.37 1650.33H1029.46L1027.74 1651.87H1073.37V1650.33Z" fill="white"/>
<path d="M1073.37 1651.87H1027.74L1026.03 1653.41H1073.37V1651.87Z" fill="white"/>
<path d="M1073.37 1653.41H1026.03L1024.33 1654.95H1073.37V1653.41Z" fill="white"/>
<path d="M1073.37 1654.95H1024.33L1022.62 1656.5H1073.37V1654.95Z" fill="white"/>
<path d="M1073.37 1656.5H1022.62L1020.91 1658.04H1073.37V1656.5Z" fill="white"/>
<path d="M1073.37 1658.04H1020.91L1019.2 1659.58H1073.37V1658.04Z" fill="white"/>
<path d="M1073.37 1659.58H1019.2L1017.49 1661.12H1073.37V1659.58Z" fill="white"/>
<path d="M1073.37 1661.12H1017.49L1015.77 1662.66H1073.37V1661.12Z" fill="white"/>
<path d="M1073.37 1662.66H1015.77L1014.06 1664.19H1073.37V1662.66Z" fill="white"/>
<path d="M1073.37 1664.19H1014.06L1012.35 1665.73H1073.37V1664.19Z" fill="white"/>
<path d="M1073.37 1665.73H1012.35L1010.64 1667.27H1073.37V1665.73Z" fill="white"/>
<path d="M1073.37 1667.27H1010.64L1008.93 1668.82H1073.37V1667.27Z" fill="white"/>
<path d="M1073.37 1668.81H1008.93L1007.22 1670.36H1073.37V1668.81Z" fill="white"/>
<path d="M1073.37 1670.36H1007.22L1005.5 1671.9H1073.37V1670.36Z" fill="white"/>
<path d="M1073.37 1671.9H1005.5L1003.79 1673.44H1073.37V1671.9Z" fill="white"/>
<path d="M1073.37 1673.44H1003.79L1002.08 1674.98H1073.37V1673.44Z" fill="white"/>
<path d="M1073.37 1674.98H1002.08L1000.37 1676.52H1073.37V1674.98Z" fill="white"/>
<path d="M1073.37 1676.52H1000.37L998.657 1678.06H1073.37V1676.52Z" fill="white"/>
<path d="M1073.37 1678.06H998.657L996.957 1679.6H1073.37V1678.06Z" fill="white"/>
<path d="M1073.37 1679.6H996.957L995.245 1681.15H1073.37V1679.6Z" fill="white"/>
<path d="M1073.37 1681.15H995.245L993.534 1682.69H1073.37V1681.15Z" fill="white"/>
<path d="M1073.37 1682.69H993.534L991.822 1684.23H1073.37V1682.69Z" fill="white"/>
<path d="M1073.37 1684.23H991.822L990.11 1685.77H1073.37V1684.23Z" fill="white"/>
<path d="M1073.37 1685.77H990.11L988.399 1687.31H1073.37V1685.77Z" fill="white"/>
<path d="M1073.37 1687.31H988.399L986.687 1688.85H1073.37V1687.31Z" fill="white"/>
<path d="M1073.37 1688.85H986.687L984.975 1690.39H1073.37V1688.85Z" fill="white"/>
<path d="M1073.37 1690.39H984.975L983.264 1691.93H1073.37V1690.39Z" fill="white"/>
<path d="M1073.37 1691.93H983.264L981.552 1693.47H1073.37V1691.93Z" fill="white"/>
<path d="M1073.37 1693.48H981.552L979.84 1695.02H1073.37V1693.48Z" fill="white"/>
<path d="M1073.37 1695.02H979.84L978.129 1696.56H1073.37V1695.02Z" fill="white"/>
<path d="M1073.37 1696.56H978.129L976.417 1698.1H1073.37V1696.56Z" fill="white"/>
<path d="M1073.37 1698.1H976.417L974.705 1699.64H1073.37V1698.1Z" fill="white"/>
<path d="M1073.37 1699.64H974.705L972.994 1701.18H1073.37V1699.64Z" fill="white"/>
<path d="M1073.37 1701.18H972.994L971.282 1702.72H1073.37V1701.18Z" fill="white"/>
<path d="M1073.37 1702.72H971.282L969.57 1704.26H1073.37V1702.72Z" fill="white"/>
<path d="M1073.37 1704.26H969.57L967.87 1705.81H1073.37V1704.26Z" fill="white"/>
<path d="M1073.37 1705.81H967.87L966.158 1707.35H1073.37V1705.81Z" fill="white"/>
<path d="M1073.37 1707.35H966.158L964.446 1708.89H1073.37V1707.35Z" fill="white"/>
<path d="M1073.37 1708.89H964.446L962.735 1710.43H1073.37V1708.89Z" fill="white"/>
<path d="M1073.37 1710.43H962.735L961.023 1711.97H1072.99L1073.37 1711.62V1710.43Z" fill="white"/>
<path d="M961.023 1711.97L959.312 1713.51H1071.29L1072.99 1711.97H961.023Z" fill="white"/>
<path d="M959.312 1713.51L957.6 1715.05H1069.59L1071.29 1713.51H959.312Z" fill="white"/>
<path d="M957.6 1715.05L955.889 1716.59H1067.89L1069.59 1715.05H957.6Z" fill="white"/>
<path d="M955.888 1716.59L954.177 1718.13H1066.2L1067.89 1716.59H955.888Z" fill="white"/>
<path d="M954.177 1718.14L952.465 1719.68H1064.5L1066.2 1718.14H954.177Z" fill="white"/>
<path d="M952.465 1719.68L950.753 1721.22H1062.79L1064.5 1719.68H952.465Z" fill="white"/>
<path d="M950.753 1721.22L949.042 1722.76H1061.11L1062.79 1721.22H950.753Z" fill="white"/>
<path d="M949.041 1722.76L947.33 1724.3H1059.4L1061.11 1722.76H949.041Z" fill="white"/>
<path d="M947.33 1724.3L945.618 1725.84H1057.7L1059.4 1724.3H947.33Z" fill="white"/>
<path d="M945.619 1725.84L943.907 1727.38H1056L1057.7 1725.84H945.619Z" fill="white"/>
<path d="M943.907 1727.38L942.195 1728.92H1054.31L1056.01 1727.38H943.907Z" fill="white"/>
<path d="M942.195 1728.93L940.484 1730.47H1052.61L1054.31 1728.93H942.195Z" fill="white"/>
<path d="M940.483 1730.47L938.772 1732.01H1050.91L1052.61 1730.47H940.483Z" fill="white"/>
<path d="M938.783 1732.01L937.071 1733.55H1049.22L1050.91 1732.01H938.783Z" fill="white"/>
<path d="M937.071 1733.55L935.36 1735.09H1047.52L1049.22 1733.55H937.071Z" fill="white"/>
<path d="M935.36 1735.09L933.648 1736.63H1045.82L1047.52 1735.09H935.36Z" fill="white"/>
<path d="M933.648 1736.63L931.936 1738.17H1044.12L1045.82 1736.63H933.648Z" fill="white"/>
<path d="M931.936 1738.17L930.224 1739.71H1042.43L1044.13 1738.17H931.936Z" fill="white"/>
<path d="M930.224 1739.71L928.513 1741.25H1040.73L1042.43 1739.71H930.224Z" fill="white"/>
<path d="M928.513 1741.25L926.801 1742.8H1039.03L1040.73 1741.25H928.513Z" fill="white"/>
<path d="M926.801 1742.8L925.277 1744.17H1037.53L1039.03 1742.8H926.801Z" fill="white"/>
<path d="M925.277 1744.17L923.764 1745.54H1036.02L1037.53 1744.17H925.277Z" fill="white"/>
<path d="M923.753 1745.54L922.24 1746.91H1034.5L1036.02 1745.54H923.753Z" fill="white"/>
<path d="M922.241 1746.91L920.717 1748.28H1033L1034.5 1746.91H922.241Z" fill="white"/>
<path d="M920.716 1748.28L919.192 1749.65H1031.49L1033 1748.28H920.716Z" fill="white"/>
<path d="M919.193 1749.65L917.68 1751.02H1029.98L1031.49 1749.65H919.193Z" fill="white"/>
<path d="M917.68 1751.02L916.156 1752.39H1028.47L1029.98 1751.02H917.68Z" fill="white"/>
<path d="M916.156 1752.39L914.632 1753.76H1026.96L1028.47 1752.39H916.156Z" fill="white"/>
<path d="M914.632 1753.76L913.108 1755.13H1025.45L1026.96 1753.76H914.632Z" fill="white"/>
<path d="M913.108 1755.13L911.584 1756.5H1023.95L1025.45 1755.13H913.108Z" fill="white"/>
<path d="M911.584 1756.5L910.071 1757.87H1022.43L1023.95 1756.5H911.584Z" fill="white"/>
<path d="M910.071 1757.87L908.547 1759.24H1020.92L1022.43 1757.87H910.071Z" fill="white"/>
<path d="M908.547 1759.24L907.023 1760.61H1019.42L1020.92 1759.24H908.547Z" fill="white"/>
<path d="M907.023 1760.61L905.499 1761.98H1017.91L1019.42 1760.61H907.023Z" fill="white"/>
<path d="M905.5 1761.98L903.987 1763.35H1016.39L1017.91 1761.98H905.5Z" fill="white"/>
<path d="M903.986 1763.35L902.463 1764.72H1014.89L1016.39 1763.35H903.986Z" fill="white"/>
<path d="M902.462 1764.72L900.938 1766.09H1013.38L1014.89 1764.72H902.462Z" fill="white"/>
<path d="M900.939 1766.09L900.563 1766.43V1767.46H1011.87L1013.38 1766.09H900.939Z" fill="white"/>
<path d="M900.563 1767.46V1768.83H1010.36L1011.86 1767.46H900.563Z" fill="white"/>
<path d="M900.563 1768.83V1770.2H1008.85L1010.36 1768.83H900.563Z" fill="white"/>
<path d="M900.563 1770.2V1771.57H1007.34L1008.85 1770.2H900.563Z" fill="white"/>
<path d="M900.563 1771.57V1772.94H1005.84L1007.34 1771.57H900.563Z" fill="white"/>
<path d="M900.563 1772.94V1774.31H1004.32L1005.84 1772.94H900.563Z" fill="white"/>
<path d="M900.563 1774.31V1775.68H1002.81L1004.32 1774.31H900.563Z" fill="white"/>
<path d="M900.563 1775.68V1777.05H1001.31L1002.81 1775.68H900.563Z" fill="white"/>
<path d="M900.563 1777.05V1778.42H999.795L1001.31 1777.05H900.563Z" fill="white"/>
<path d="M900.564 1778.42V1779.79H998.283L999.795 1778.42H900.564Z" fill="white"/>
<path d="M900.563 1779.79V1781.16H996.78L998.282 1779.79H900.563Z" fill="white"/>
<path d="M900.564 1781.16V1782.53H995.268L996.781 1781.16H900.564Z" fill="white"/>
<path d="M900.563 1782.53V1783.9H993.755L995.268 1782.53H900.563Z" fill="white"/>
<path d="M900.563 1783.9V1785.27H992.253L993.754 1783.9H900.563Z" fill="white"/>
<path d="M900.563 1785.27V1786.64H990.74L992.253 1785.27H900.563Z" fill="white"/>
<path d="M900.563 1786.64V1788.01H989.227L990.74 1786.64H900.563Z" fill="white"/>
<path d="M900.563 1788.01V1789.38H987.725L989.227 1788.01H900.563Z" fill="white"/>
<path d="M900.563 1789.38V1790.75H986.212L987.725 1789.38H900.563Z" fill="white"/>
<path d="M900.563 1790.75V1792.12H984.699L986.212 1790.75H900.563Z" fill="white"/>
<path d="M900.563 1792.12V1793.49H983.198L984.699 1792.12H900.563Z" fill="white"/>
<path d="M900.563 1793.49V1794.86H981.685L983.198 1793.49H900.563Z" fill="white"/>
<path d="M900.563 1794.86V1796.23H980.172L981.685 1794.86H900.563Z" fill="white"/>
<path d="M900.563 1796.23V1797.6H978.67L980.172 1796.23H900.563Z" fill="white"/>
<path d="M900.563 1797.6V1798.97H977.157L978.67 1797.6H900.563Z" fill="white"/>
<path d="M900.563 1798.97V1800.34H975.644L977.157 1798.97H900.563Z" fill="white"/>
<path d="M900.563 1800.34V1801.71H974.142L975.644 1800.34H900.563Z" fill="white"/>
<path d="M900.563 1801.71V1803.08H972.63L974.143 1801.71H900.563Z" fill="white"/>
<path d="M900.563 1803.08V1804.45H971.116L972.629 1803.08H900.563Z" fill="white"/>
<path d="M900.563 1804.45V1805.82H969.615L971.117 1804.45H900.563Z" fill="white"/>
<path d="M900.563 1805.82V1807.19H968.102L969.615 1805.82H900.563Z" fill="white"/>
<path d="M900.563 1807.19V1808.56H966.589L968.102 1807.19H900.563Z" fill="white"/>
<path d="M900.563 1808.56V1809.93H965.087L966.589 1808.56H900.563Z" fill="white"/>
<path d="M900.563 1809.93V1811.3H963.574L965.087 1809.93H900.563Z" fill="white"/>
<path d="M900.563 1811.3V1812.67H962.062L963.574 1811.3H900.563Z" fill="white"/>
<path d="M900.563 1812.67V1814.04H960.559L962.061 1812.67H900.563Z" fill="white"/>
<path d="M900.563 1814.04V1815.41H959.047L960.56 1814.04H900.563Z" fill="white"/>
<path d="M900.563 1815.41V1816.78H957.534L959.047 1815.41H900.563Z" fill="white"/>
<path d="M900.563 1816.78V1818.15H956.032L957.534 1816.78H900.563Z" fill="white"/>
<path d="M900.563 1818.15V1819.52H954.519L956.032 1818.15H900.563Z" fill="white"/>
<path d="M900.563 1819.52V1820.89H953.006L954.519 1819.52H900.563Z" fill="white"/>
<path d="M900.563 1820.89V1822.26H951.505L953.006 1820.89H900.563Z" fill="white"/>
<path d="M900.563 1822.26V1823.63H949.992L951.504 1822.26H900.563Z" fill="white"/>
<path d="M900.563 1823.63V1825H948.478L949.991 1823.63H900.563Z" fill="white"/>
<path d="M900.563 1825V1826.37H946.977L948.479 1825H900.563Z" fill="white"/>
<path d="M900.563 1826.37V1827.74H945.464L946.977 1826.37H900.563Z" fill="white"/>
<path d="M900.563 1827.74V1829.11H943.951L945.464 1827.74H900.563Z" fill="white"/>
<path d="M900.563 1829.11V1830.48H942.449L943.951 1829.11H900.563Z" fill="white"/>
<path d="M900.563 1830.48V1831.85H940.936L942.449 1830.48H900.563Z" fill="white"/>
<path d="M900.563 1831.85V1833.22H939.423L940.936 1831.85H900.563Z" fill="white"/>
<path d="M900.563 1833.22V1834.59H937.921L939.423 1833.22H900.563Z" fill="white"/>
<path d="M900.563 1834.59V1835.96H936.409L937.922 1834.59H900.563Z" fill="white"/>
<path d="M900.563 1835.96V1837.33H934.896L936.408 1835.96H900.563Z" fill="white"/>
<path d="M900.563 1837.33V1838.7H933.394L934.896 1837.33H900.563Z" fill="white"/>
<path d="M900.563 1838.7V1840.07H931.881L933.394 1838.7H900.563Z" fill="white"/>
<path d="M900.563 1840.07V1841.44H930.368L931.881 1840.07H900.563Z" fill="white"/>
<path d="M900.563 1841.44V1842.81H928.866L930.368 1841.44H900.563Z" fill="white"/>
<path d="M900.563 1842.81V1844.18H927.353L928.866 1842.81H900.563Z" fill="white"/>
<path d="M900.563 1844.18V1845.56H925.841L927.354 1844.18H900.563Z" fill="white"/>
<path d="M900.563 1845.55V1846.92H924.338L925.84 1845.55H900.563Z" fill="white"/>
<path d="M900.563 1846.92V1848.29H922.826L924.339 1846.92H900.563Z" fill="white"/>
<path d="M900.563 1848.29V1849.67H921.313L922.826 1848.29H900.563Z" fill="white"/>
<path d="M900.563 1849.67V1851.04H919.811L921.313 1849.67H900.563Z" fill="white"/>
<path d="M900.563 1851.03V1868.51L919.811 1851.03H900.563Z" fill="white"/>
<path d="M4.15161 1918.68V1851.83H266.863L331.299 1920L4.15161 1918.68ZM19.3135 1865.54V1905.03L298.269 1906.15L259.884 1865.54H19.3025H19.3135Z" fill="white"/>
<path d="M981.287 1166.92L989.315 614.498L1049.71 669.159L1045.87 1117.45L981.276 1166.91L981.287 1166.92ZM1004 647.175L996.88 1137.01L1030.78 1111.04L1034.51 674.8L1003.99 647.175H1004Z" fill="white"/>
<path d="M1076.68 120.691L1030.76 85.7124V555.405C1045.92 569.116 1061.09 582.827 1076.26 596.549C1076.4 437.926 1076.54 279.314 1076.69 120.691" fill="white"/>
<mask id="mask1_2352_3621" style="mask-type:luminance" maskUnits="userSpaceOnUse" x="1030" y="85" width="47" height="512">
<path d="M1076.68 120.691L1030.76 85.7124V555.405C1045.92 569.116 1061.08 582.827 1076.26 596.549C1076.4 437.926 1076.54 279.314 1076.69 120.691" fill="white"/>
</mask>
<g mask="url(#mask1_2352_3621)">
<path d="M1076.68 106.07V85.7124H1030.76V106.07H1076.68Z" fill="white"/>
<path d="M1076.68 109.12V106.07H1030.76V109.12H1076.68Z" fill="white"/>
<path d="M1076.68 112.171V109.12H1030.76V112.171H1076.68Z" fill="white"/>
<path d="M1076.68 115.221V112.171H1030.76V115.221H1076.68Z" fill="white"/>
<path d="M1076.68 118.282V115.232H1030.76V118.282H1076.68Z" fill="white"/>
<path d="M1076.68 121.333V118.283H1030.76V121.333H1076.68Z" fill="white"/>
<path d="M1076.68 124.394V121.343H1030.76V124.394H1076.68Z" fill="white"/>
<path d="M1076.68 127.444V124.394H1030.76V127.444H1076.68Z" fill="white"/>
<path d="M1076.68 130.495V127.444H1030.76V130.495H1076.68Z" fill="white"/>
<path d="M1076.68 133.556V130.506H1030.76V133.556H1076.68Z" fill="white"/>
<path d="M1076.68 136.607V133.556H1030.76V136.607H1076.68Z" fill="white"/>
<path d="M1076.68 139.656V136.606H1030.76V139.656H1076.68Z" fill="white"/>
<path d="M1076.68 142.718V139.667H1030.76V142.718H1076.68Z" fill="white"/>
<path d="M1076.68 145.768V142.718H1030.76V145.768H1076.68Z" fill="white"/>
<path d="M1076.68 148.83V145.779H1030.76V148.83H1076.68Z" fill="white"/>
<path d="M1076.68 151.88V148.83H1030.76V151.88H1076.68Z" fill="white"/>
<path d="M1076.68 154.941V151.891H1030.76V154.941H1076.68Z" fill="white"/>
<path d="M1076.68 157.991V154.941H1030.76V157.991H1076.68Z" fill="white"/>
<path d="M1076.68 161.042V157.991H1030.76V161.042H1076.68Z" fill="white"/>
<path d="M1076.68 164.104V161.053H1030.76V164.104H1076.68Z" fill="white"/>
<path d="M1076.68 167.153V164.103H1030.76V167.153H1076.68Z" fill="white"/>
<path d="M1076.68 170.204V167.153H1030.76V170.204H1076.68Z" fill="white"/>
<path d="M1076.68 173.265V170.214H1030.76V173.265H1076.68Z" fill="white"/>
<path d="M1076.68 176.315V173.265H1030.76V176.315H1076.68Z" fill="white"/>
<path d="M1076.68 179.377V176.327H1030.76V179.377H1076.68Z" fill="white"/>
<path d="M1076.68 182.426V179.376H1030.76V182.426H1076.68Z" fill="white"/>
<path d="M1076.68 185.477V182.427H1030.76V185.477H1076.68Z" fill="white"/>
<path d="M1076.68 188.539V185.488H1030.76V188.539H1076.68Z" fill="white"/>
<path d="M1076.68 191.589V188.539H1030.76V191.589H1076.68Z" fill="white"/>
<path d="M1076.68 194.64V191.589H1030.76V194.64H1076.68Z" fill="white"/>
<path d="M1076.68 197.7V194.649H1030.76V197.7H1076.68Z" fill="white"/>
<path d="M1076.68 200.751V197.7H1030.76V200.751H1076.68Z" fill="white"/>
<path d="M1076.68 203.813V200.762H1030.76V203.813H1076.68Z" fill="white"/>
<path d="M1076.68 206.862V203.812H1030.76V206.862H1076.68Z" fill="white"/>
<path d="M1076.68 209.913V206.863H1030.76V209.913H1076.68Z" fill="white"/>
<path d="M1076.68 212.974V209.923H1030.76V212.974H1076.68Z" fill="white"/>
<path d="M1076.68 216.025V212.974H1030.76V216.025H1076.68Z" fill="white"/>
<path d="M1076.68 219.086V216.036H1030.76V219.086H1076.68Z" fill="white"/>
<path d="M1076.68 222.136V219.086H1030.76V222.136H1076.68Z" fill="white"/>
<path d="M1076.68 225.187V222.137H1030.76V225.187H1076.68Z" fill="white"/>
<path d="M1076.68 228.247V225.197H1030.76V228.247H1076.68Z" fill="white"/>
<path d="M1076.68 231.298V228.248H1030.76V231.298H1076.68Z" fill="white"/>
<path d="M1076.68 234.349V231.298H1030.76V234.349H1076.68Z" fill="white"/>
<path d="M1076.68 237.41V234.359H1030.76V237.41H1076.68Z" fill="white"/>
<path d="M1076.68 240.46V237.41H1030.76V240.46H1076.68Z" fill="white"/>
<path d="M1076.68 243.521V240.471H1030.76V243.521H1076.68Z" fill="white"/>
<path d="M1076.68 246.572V243.521H1030.76V246.572H1076.68Z" fill="white"/>
<path d="M1076.68 249.623V246.572H1030.76V249.623H1076.68Z" fill="white"/>
<path d="M1076.68 252.683V249.633H1030.76V252.683H1076.68Z" fill="white"/>
<path d="M1076.68 255.734V252.683H1030.76V255.734H1076.68Z" fill="white"/>
<path d="M1076.68 258.795V255.744H1030.76V258.795H1076.68Z" fill="white"/>
<path d="M1076.68 261.845V258.795H1030.76V261.845H1076.68Z" fill="white"/>
<path d="M1076.68 264.896V261.846H1030.76V264.896H1076.68Z" fill="white"/>
<path d="M1076.68 267.957V264.907H1030.76V267.957H1076.68Z" fill="white"/>
<path d="M1076.68 271.007V267.957H1030.76V271.007H1076.68Z" fill="white"/>
<path d="M1076.68 274.069V271.018H1030.76V274.069H1076.68Z" fill="white"/>
<path d="M1076.68 277.119V274.068H1030.76V277.119H1076.68Z" fill="white"/>
<path d="M1076.68 280.17V277.119H1030.76V280.17H1076.68Z" fill="white"/>
<path d="M1076.68 283.231V280.18H1030.76V283.231H1076.68Z" fill="white"/>
<path d="M1076.68 286.281V283.23H1030.76V286.281H1076.68Z" fill="white"/>
<path d="M1076.68 289.332V286.281H1030.76V289.332H1076.68Z" fill="white"/>
<path d="M1076.68 292.393V289.342H1030.76V292.393H1076.68Z" fill="white"/>
<path d="M1076.68 295.443V292.393H1030.76V295.443H1076.68Z" fill="white"/>
<path d="M1076.68 298.504V295.453H1030.76V298.504H1076.68Z" fill="white"/>
<path d="M1076.68 301.554V298.504H1030.76V301.554H1076.68Z" fill="white"/>
<path d="M1076.68 304.605V301.555H1030.76V304.605H1076.68Z" fill="white"/>
<path d="M1076.68 307.666V304.616H1030.76V307.666H1076.68Z" fill="white"/>
<path d="M1076.68 310.717V307.667H1030.76V310.717H1076.68Z" fill="white"/>
<path d="M1076.68 313.777V310.727H1030.76V313.777H1076.68Z" fill="white"/>
<path d="M1076.68 316.828V313.778H1030.76V316.828H1076.68Z" fill="white"/>
<path d="M1076.68 319.879V316.829H1030.76V319.879H1076.68Z" fill="white"/>
<path d="M1076.68 322.94V319.89H1030.76V322.94H1076.68Z" fill="white"/>
<path d="M1076.68 325.991V322.94H1030.76V325.991H1076.68Z" fill="white"/>
<path d="M1076.68 329.041V325.991H1030.76V329.041H1076.68Z" fill="white"/>
<path d="M1076.68 332.102V329.051H1030.76V332.102H1076.68Z" fill="white"/>
<path d="M1076.68 335.152V332.102H1030.76V335.152H1076.68Z" fill="white"/>
<path d="M1076.68 338.214V335.163H1030.76V338.214H1076.68Z" fill="white"/>
<path d="M1076.68 341.264V338.214H1030.76V341.264H1076.68Z" fill="white"/>
<path d="M1076.68 344.314V341.264H1030.76V344.314H1076.68Z" fill="white"/>
<path d="M1076.68 347.376V344.325H1030.76V347.376H1076.68Z" fill="white"/>
<path d="M1076.68 350.095V347.376H1030.76V350.095H1076.68Z" fill="white"/>
<path d="M1076.68 352.812V350.094H1030.76V352.812H1076.68Z" fill="white"/>
<path d="M1076.68 355.531V352.812H1030.76V355.531H1076.68Z" fill="white"/>
<path d="M1076.68 358.239V355.521H1030.76V358.239H1076.68Z" fill="white"/>
<path d="M1076.68 360.958V358.24H1030.76V360.958H1076.68Z" fill="white"/>
<path d="M1076.68 363.677V360.958H1030.76V363.677H1076.68Z" fill="white"/>
<path d="M1076.68 366.395V363.677H1030.76V366.395H1076.68Z" fill="white"/>
<path d="M1076.68 369.103V366.384H1030.76V369.103H1076.68Z" fill="white"/>
<path d="M1076.68 371.822V369.104H1030.76V371.822H1076.68Z" fill="white"/>
<path d="M1076.68 374.54V371.822H1030.76V374.54H1076.68Z" fill="white"/>
<path d="M1076.68 377.259V374.541H1030.76V377.259H1076.68Z" fill="white"/>
<path d="M1076.68 379.967V377.248H1030.76V379.967H1076.68Z" fill="white"/>
<path d="M1076.68 382.686V379.967H1030.76V382.686H1076.68Z" fill="white"/>
<path d="M1076.68 385.404V382.686H1030.76V385.404H1076.68Z" fill="white"/>
<path d="M1076.68 388.112V385.394H1030.76V388.112H1076.68Z" fill="white"/>
<path d="M1076.68 390.83V388.112H1030.76V390.83H1076.68Z" fill="white"/>
<path d="M1076.68 393.55V390.831H1030.76V393.55H1076.68Z" fill="white"/>
<path d="M1076.68 396.268V393.55H1030.76V396.268H1076.68Z" fill="white"/>
<path d="M1076.68 398.976V396.258H1030.76V398.976H1076.68Z" fill="white"/>
<path d="M1076.68 401.695V398.976H1030.76V401.695H1076.68Z" fill="white"/>
<path d="M1076.68 404.414V401.695H1030.76V404.414H1076.68Z" fill="white"/>
<path d="M1076.68 407.132V404.414H1030.76V407.132H1076.68Z" fill="white"/>
<path d="M1076.68 409.841V407.122H1030.76V409.841H1076.68Z" fill="white"/>
<path d="M1076.68 412.558V409.84H1030.76V412.558H1076.68Z" fill="white"/>
<path d="M1076.68 415.277V412.559H1030.76V415.277H1076.68Z" fill="white"/>
<path d="M1076.68 417.996V415.278H1030.76V417.996H1076.68Z" fill="white"/>
<path d="M1076.68 420.704V417.985H1030.76V420.704H1076.68Z" fill="white"/>
<path d="M1076.68 423.422V420.704H1030.76V423.422H1076.68Z" fill="white"/>
<path d="M1076.68 426.141V423.422H1030.76V426.141H1076.68Z" fill="white"/>
<path d="M1076.68 428.849V426.13H1030.76V428.849H1076.68Z" fill="white"/>
<path d="M1076.68 431.568V428.849H1030.76V431.568H1076.68Z" fill="white"/>
<path d="M1076.68 434.286V431.567H1030.76V434.286H1076.68Z" fill="white"/>
<path d="M1076.68 437.005V434.286H1030.76V437.005H1076.68Z" fill="white"/>
<path d="M1076.68 439.713V436.995H1030.76V439.713H1076.68Z" fill="white"/>
<path d="M1076.68 442.432V439.713H1030.76V442.432H1076.68Z" fill="white"/>
<path d="M1076.68 445.15V442.431H1030.76V445.15H1076.68Z" fill="white"/>
<path d="M1076.68 447.869V445.15H1030.76V447.869H1076.68Z" fill="white"/>
<path d="M1076.68 450.577V447.858H1030.76V450.577H1076.68Z" fill="white"/>
<path d="M1076.68 453.296V450.577H1030.76V453.296H1076.68Z" fill="white"/>
<path d="M1076.68 456.014V453.295H1030.76V456.014H1076.68Z" fill="white"/>
<path d="M1076.68 458.722V456.003H1030.76V458.722H1076.68Z" fill="white"/>
<path d="M1076.68 461.44V458.722H1030.76V461.44H1076.68Z" fill="white"/>
<path d="M1076.68 464.16V461.441H1030.76V464.16H1076.68Z" fill="white"/>
<path d="M1076.68 466.878V464.159H1030.76V466.878H1076.68Z" fill="white"/>
<path d="M1076.68 469.585V466.867H1030.76V469.585H1076.68Z" fill="white"/>
<path d="M1076.68 472.304V469.585H1030.76V472.304H1076.68Z" fill="white"/>
<path d="M1076.68 475.023V472.305H1030.76V475.023H1076.68Z" fill="white"/>
<path d="M1076.68 477.742V475.023H1030.76V477.742H1076.68Z" fill="white"/>
<path d="M1076.68 480.45V477.731H1030.76V480.45H1076.68Z" fill="white"/>
<path d="M1076.68 483.168V480.449H1030.76V483.168H1076.68Z" fill="white"/>
<path d="M1076.68 485.887V483.168H1030.76V485.887H1076.68Z" fill="white"/>
<path d="M1076.68 488.595V485.876H1030.76V488.595H1076.68Z" fill="white"/>
<path d="M1076.68 491.314V488.595H1030.76V491.314H1076.68Z" fill="white"/>
<path d="M1076.68 494.032V491.313H1030.76V494.032H1076.68Z" fill="white"/>
<path d="M1076.68 496.751V494.033H1030.76V496.751H1076.68Z" fill="white"/>
<path d="M1076.68 499.458V496.74H1030.76V499.458H1076.68Z" fill="white"/>
<path d="M1076.68 502.178V499.459H1030.76V502.178H1076.68Z" fill="white"/>
<path d="M1076.68 504.896V502.177H1030.76V504.896H1076.68Z" fill="white"/>
<path d="M1076.68 507.615V504.896H1030.76V507.615H1076.68Z" fill="white"/>
<path d="M1076.68 510.322V507.604H1030.76V510.322H1076.68Z" fill="white"/>
<path d="M1076.68 513.041V510.323H1030.76V513.041H1076.68Z" fill="white"/>
<path d="M1076.68 515.76V513.041H1030.76V515.76H1076.68Z" fill="white"/>
<path d="M1076.68 518.478V515.76H1030.76V518.478H1076.68Z" fill="white"/>
<path d="M1076.68 521.186V518.467H1030.76V521.186H1076.68Z" fill="white"/>
<path d="M1076.68 523.905V521.186H1030.76V523.905H1076.68Z" fill="white"/>
<path d="M1076.68 526.623V523.905H1030.76V526.623H1076.68Z" fill="white"/>
<path d="M1076.68 529.331V526.613H1030.76V529.331H1076.68Z" fill="white"/>
<path d="M1076.68 532.05V529.332H1030.76V532.05H1076.68Z" fill="white"/>
<path d="M1076.68 534.768V532.05H1030.76V534.768H1076.68Z" fill="white"/>
<path d="M1076.68 537.487V534.769H1030.76V537.487H1076.68Z" fill="white"/>
<path d="M1076.68 540.195V537.477H1030.76V540.195H1076.68Z" fill="white"/>
<path d="M1076.68 542.914V540.195H1030.76V542.914H1076.68Z" fill="white"/>
<path d="M1076.68 545.633V542.914H1030.76V545.633H1076.68Z" fill="white"/>
<path d="M1076.68 548.351V545.633H1030.76V548.351H1076.68Z" fill="white"/>
<path d="M1076.68 551.059V548.341H1030.76V551.059H1076.68Z" fill="white"/>
<path d="M1076.68 553.778V551.059H1030.76V553.778H1076.68Z" fill="white"/>
<path d="M1076.68 556.497V553.778H1030.76V556.497H1076.68Z" fill="white"/>
<path d="M1076.68 559.204V556.486H1030.76V559.204H1076.68Z" fill="white"/>
<path d="M1076.68 561.923V559.204H1030.76V561.923H1076.68Z" fill="white"/>
<path d="M1076.68 596.548V561.923H1030.76V596.548H1076.68Z" fill="white"/>
</g>
<path d="M283.539 0H647.503L590.676 51.4293H322.002L283.539 0ZM610.918 13.7109H312.096L330.041 37.7077H584.393L610.907 13.7109H610.918Z" fill="white"/>
<path d="M-0.000368285 138.383V0H142.829L-0.000368285 138.383ZM15.1505 13.7109V103.608L107.933 13.7109H15.1505Z" fill="white"/>
<path d="M57.1914 109.709L4.15217 157.703C2.89328 418.895 1.62328 680.098 0.364385 941.291L57.1914 894.507V109.709Z" fill="white"/>
<mask id="mask2_2352_3621" style="mask-type:luminance" maskUnits="userSpaceOnUse" x="0" y="109" width="58" height="833">
<path d="M57.1914 109.709L4.15217 157.703C2.89328 418.895 1.62328 680.098 0.364385 941.291L57.1914 894.507V109.709Z" fill="white"/>
</mask>
<g mask="url(#mask2_2352_3621)">
<path d="M57.1914 142.846V109.709H0.364384V142.846H57.1914Z" fill="white"/>
<path d="M57.1914 147.823V142.846H0.364384V147.823H57.1914Z" fill="white"/>
<path d="M57.1914 152.79V147.813H0.364384V152.79H57.1914Z" fill="white"/>
<path d="M57.1914 157.766V152.789H0.364384V157.766H57.1914Z" fill="white"/>
<path d="M57.1914 162.744V157.767H0.364384V162.744H57.1914Z" fill="white"/>
<path d="M57.1914 167.71V162.733H0.364384V167.71H57.1914Z" fill="white"/>
<path d="M57.1914 172.687V167.71H0.364384V172.687H57.1914Z" fill="white"/>
<path d="M57.1914 177.654V172.677H0.364384V177.654H57.1914Z" fill="white"/>
<path d="M57.1914 182.63V177.653H0.364384V182.63H57.1914Z" fill="white"/>
<path d="M57.1914 187.607V182.63H0.364384V187.607H57.1914Z" fill="white"/>
<path d="M57.1914 192.574V187.597H0.364384V192.574H57.1914Z" fill="white"/>
<path d="M57.1914 197.551V192.574H0.364384V197.551H57.1914Z" fill="white"/>
<path d="M57.1914 202.517V197.54H0.364384V202.517H57.1914Z" fill="white"/>
<path d="M57.1914 207.494V202.517H0.364384V207.494H57.1914Z" fill="white"/>
<path d="M57.1914 212.461V207.484H0.364384V212.461H57.1914Z" fill="white"/>
<path d="M57.1914 217.437V212.46H0.364384V217.437H57.1914Z" fill="white"/>
<path d="M57.1914 222.415V217.438H0.364384V222.415H57.1914Z" fill="white"/>
<path d="M57.1914 227.381V222.404H0.364384V227.381H57.1914Z" fill="white"/>
<path d="M57.1914 232.358V227.381H0.364384V232.358H57.1914Z" fill="white"/>
<path d="M57.1914 237.325V232.348H0.364384V237.325H57.1914Z" fill="white"/>
<path d="M57.1914 242.301V237.324H0.364384V242.301H57.1914Z" fill="white"/>
<path d="M57.1914 247.268V242.291H0.364384V247.268H57.1914Z" fill="white"/>
<path d="M57.1914 252.244V247.267H0.364384V252.244H57.1914Z" fill="white"/>
<path d="M57.1914 257.222V252.245H0.364384V257.222H57.1914Z" fill="white"/>
<path d="M57.1914 262.188V257.211H0.364384V262.188H57.1914Z" fill="white"/>
<path d="M57.1914 267.165V262.188H0.364384V267.165H57.1914Z" fill="white"/>
<path d="M57.1914 272.132V267.155H0.364384V272.132H57.1914Z" fill="white"/>
<path d="M57.1914 277.108V272.131H0.364384V277.108H57.1914Z" fill="white"/>
<path d="M57.1914 282.085V277.108H0.364384V282.085H57.1914Z" fill="white"/>
<path d="M57.1914 287.051V282.074H0.364384V287.051H57.1914Z" fill="white"/>
<path d="M57.1914 292.029V287.052H0.364384V292.029H57.1914Z" fill="white"/>
<path d="M57.1914 296.996V292.019H0.364384V296.996H57.1914Z" fill="white"/>
<path d="M57.1914 301.972V296.995H0.364384V301.972H57.1914Z" fill="white"/>
<path d="M57.1914 306.938V301.961H0.364384V306.938H57.1914Z" fill="white"/>
<path d="M57.1914 311.915V306.938H0.364384V311.915H57.1914Z" fill="white"/>
<path d="M57.1914 316.882V311.905H0.364384V316.882H57.1914Z" fill="white"/>
<path d="M57.1914 321.859V316.882H0.364384V321.859H57.1914Z" fill="white"/>
<path d="M57.1914 326.836V321.859H0.364384V326.836H57.1914Z" fill="white"/>
<path d="M57.1914 331.803V326.826H0.364384V331.803H57.1914Z" fill="white"/>
<path d="M57.1914 336.779V331.802H0.364384V336.779H57.1914Z" fill="white"/>
<path d="M57.1914 341.746V336.769H0.364384V341.746H57.1914Z" fill="white"/>
<path d="M57.1914 346.723V341.746H0.364384V346.723H57.1914Z" fill="white"/>
<path d="M57.1914 351.7V346.723H0.364384V351.7H57.1914Z" fill="white"/>
<path d="M57.1914 356.666V351.689H0.364384V356.666H57.1914Z" fill="white"/>
<path d="M57.1914 361.643V356.666H0.364384V361.643H57.1914Z" fill="white"/>
<path d="M57.1914 366.609V361.632H0.364384V366.609H57.1914Z" fill="white"/>
<path d="M57.1914 371.586V366.609H0.364384V371.586H57.1914Z" fill="white"/>
<path d="M57.1914 376.553V371.576H0.364384V376.553H57.1914Z" fill="white"/>
<path d="M57.1914 381.53V376.553H0.364384V381.53H57.1914Z" fill="white"/>
<path d="M57.1914 386.507V381.53H0.364384V386.507H57.1914Z" fill="white"/>
<path d="M57.1914 391.474V386.497H0.364384V391.474H57.1914Z" fill="white"/>
<path d="M57.1914 396.45V391.473H0.364384V396.45H57.1914Z" fill="white"/>
<path d="M57.1914 401.416V396.439H0.364384V401.416H57.1914Z" fill="white"/>
<path d="M57.1914 406.394V401.417H0.364384V406.394H57.1914Z" fill="white"/>
<path d="M57.1914 411.36V406.383H0.364384V411.36H57.1914Z" fill="white"/>
<path d="M57.1914 416.337V411.36H0.364384V416.337H57.1914Z" fill="white"/>
<path d="M57.1914 421.313V416.336H0.364384V421.313H57.1914Z" fill="white"/>
<path d="M57.1914 426.28V421.303H0.364384V426.28H57.1914Z" fill="white"/>
<path d="M57.1914 431.257V426.28H0.364384V431.257H57.1914Z" fill="white"/>
<path d="M57.1914 436.224V431.247H0.364384V436.224H57.1914Z" fill="white"/>
<path d="M57.1914 441.201V436.224H0.364384V441.201H57.1914Z" fill="white"/>
<path d="M57.1914 446.178V441.201H0.364384V446.178H57.1914Z" fill="white"/>
<path d="M57.1914 451.144V446.167H0.364384V451.144H57.1914Z" fill="white"/>
<path d="M57.1914 456.121V451.144H0.364384V456.121H57.1914Z" fill="white"/>
<path d="M57.1914 461.087V456.11H0.364384V461.087H57.1914Z" fill="white"/>
<path d="M57.1914 466.064V461.087H0.364384V466.064H57.1914Z" fill="white"/>
<path d="M57.1914 471.031V466.054H0.364384V471.031H57.1914Z" fill="white"/>
<path d="M57.1914 476.008V471.031H0.364384V476.008H57.1914Z" fill="white"/>
<path d="M57.1914 480.974V475.997H0.364384V480.974H57.1914Z" fill="white"/>
<path d="M57.1914 485.951V480.974H0.364384V485.951H57.1914Z" fill="white"/>
<path d="M57.1914 490.928V485.951H0.364384V490.928H57.1914Z" fill="white"/>
<path d="M57.1914 495.895V490.917H0.364384V495.895H57.1914Z" fill="white"/>
<path d="M57.1914 500.872V495.895H0.364384V500.872H57.1914Z" fill="white"/>
<path d="M57.1914 505.838V500.861H0.364384V505.838H57.1914Z" fill="white"/>
<path d="M57.1914 510.815V505.838H0.364384V510.815H57.1914Z" fill="white"/>
<path d="M57.1914 515.792V510.815H0.364384V515.792H57.1914Z" fill="white"/>
<path d="M57.1914 520.758V515.781H0.364384V520.758H57.1914Z" fill="white"/>
<path d="M57.1914 525.735V520.758H0.364384V525.735H57.1914Z" fill="white"/>
<path d="M57.1914 530.702V525.725H0.364384V530.702H57.1914Z" fill="white"/>
<path d="M57.1914 535.679V530.702H0.364384V535.679H57.1914Z" fill="white"/>
<path d="M57.1914 540.088V535.668H0.364384V540.088H57.1914Z" fill="white"/>
<path d="M57.1914 544.509V540.088H0.364384V544.509H57.1914Z" fill="white"/>
<path d="M57.1914 548.94V544.52H0.364384V548.94H57.1914Z" fill="white"/>
<path d="M57.1914 553.361V548.94H0.364384V553.361H57.1914Z" fill="white"/>
<path d="M57.1914 557.781V553.36H0.364384V557.781H57.1914Z" fill="white"/>
<path d="M57.1914 562.201V557.781H0.364384V562.201H57.1914Z" fill="white"/>
<path d="M57.1914 566.621V562.201H0.364384V566.621H57.1914Z" fill="white"/>
<path d="M57.1914 571.042V566.622H0.364384V571.042H57.1914Z" fill="white"/>
<path d="M57.1914 575.462V571.042H0.364384V575.462H57.1914Z" fill="white"/>
<path d="M57.1914 579.883V575.462H0.364384V579.883H57.1914Z" fill="white"/>
<path d="M57.1914 584.303V579.883H0.364384V584.303H57.1914Z" fill="white"/>
<path d="M57.1914 588.724V584.304H0.364384V588.724H57.1914Z" fill="white"/>
<path d="M57.1914 593.144V588.724H0.364384V593.144H57.1914Z" fill="white"/>
<path d="M57.1914 597.565V593.144H0.364384V597.565H57.1914Z" fill="white"/>
<path d="M57.1914 601.985V597.564H0.364384V601.985H57.1914Z" fill="white"/>
<path d="M57.1914 606.406V601.985H0.364384V606.406H57.1914Z" fill="white"/>
<path d="M57.1914 610.827V606.406H0.364384V610.827H57.1914Z" fill="white"/>
<path d="M57.1914 615.247V610.826H0.364384V615.247H57.1914Z" fill="white"/>
<path d="M57.1914 619.668V615.247H0.364384V619.668H57.1914Z" fill="white"/>
<path d="M57.1914 624.088V619.667H0.364384V624.088H57.1914Z" fill="white"/>
<path d="M57.1914 628.508V624.088H0.364384V628.508H57.1914Z" fill="white"/>
<path d="M57.1914 632.929V628.508H0.364384V632.929H57.1914Z" fill="white"/>
<path d="M57.1914 637.349V632.929H0.364384V637.349H57.1914Z" fill="white"/>
<path d="M57.1914 641.77V637.349H0.364384V641.77H57.1914Z" fill="white"/>
<path d="M57.1914 646.19V641.77H0.364384V646.19H57.1914Z" fill="white"/>
<path d="M57.1914 650.622V646.201H0.364384V650.622H57.1914Z" fill="white"/>
<path d="M57.1914 655.042V650.622H0.364384V655.042H57.1914Z" fill="white"/>
<path d="M57.1914 659.462V655.042H0.364384V659.462H57.1914Z" fill="white"/>
<path d="M57.1914 663.883V659.462H0.364384V663.883H57.1914Z" fill="white"/>
<path d="M57.1914 668.303V663.883H0.364384V668.303H57.1914Z" fill="white"/>
<path d="M57.1914 672.724V668.303H0.364384V672.724H57.1914Z" fill="white"/>
<path d="M57.1914 677.144V672.723H0.364384V677.144H57.1914Z" fill="white"/>
<path d="M57.1914 681.565V677.144H0.364384V681.565H57.1914Z" fill="white"/>
<path d="M57.1914 685.984V681.564H0.364384V685.984H57.1914Z" fill="white"/>
<path d="M57.1914 690.405V685.985H0.364384V690.405H57.1914Z" fill="white"/>
<path d="M57.1914 694.826V690.405H0.364384V694.826H57.1914Z" fill="white"/>
<path d="M57.1914 699.246V694.825H0.364384V699.246H57.1914Z" fill="white"/>
<path d="M57.1914 703.666V699.246H0.364384V703.666H57.1914Z" fill="white"/>
<path d="M57.1914 708.087V703.667H0.364384V708.087H57.1914Z" fill="white"/>
<path d="M57.1914 712.507V708.087H0.364384V712.507H57.1914Z" fill="white"/>
<path d="M57.1914 716.928V712.508H0.364384V716.928H57.1914Z" fill="white"/>
<path d="M57.1914 721.348V716.928H0.364384V721.348H57.1914Z" fill="white"/>
<path d="M57.1914 725.769V721.349H0.364384V725.769H57.1914Z" fill="white"/>
<path d="M57.1914 730.19V725.769H0.364384V730.19H57.1914Z" fill="white"/>
<path d="M57.1914 734.61V730.189H0.364384V734.61H57.1914Z" fill="white"/>
<path d="M57.1914 739.03V734.61H0.364384V739.03H57.1914Z" fill="white"/>
<path d="M57.1914 743.451V739.03H0.364384V743.451H57.1914Z" fill="white"/>
<path d="M57.1914 747.872V743.451H0.364384V747.872H57.1914Z" fill="white"/>
<path d="M57.1914 752.303V747.882H0.364384V752.303H57.1914Z" fill="white"/>
<path d="M57.1914 756.723V752.303H0.364384V756.723H57.1914Z" fill="white"/>
<path d="M57.1914 761.144V756.723H0.364384V761.144H57.1914Z" fill="white"/>
<path d="M57.1914 765.564V761.144H0.364384V765.564H57.1914Z" fill="white"/>
<path d="M57.1914 769.984V765.564H0.364384V769.984H57.1914Z" fill="white"/>
<path d="M57.1914 774.405V769.985H0.364384V774.405H57.1914Z" fill="white"/>
<path d="M57.1914 778.826V774.405H0.364384V778.826H57.1914Z" fill="white"/>
<path d="M57.1914 783.246V778.825H0.364384V783.246H57.1914Z" fill="white"/>
<path d="M57.1914 787.666V783.246H0.364384V787.666H57.1914Z" fill="white"/>
<path d="M57.1914 792.087V787.667H0.364384V792.087H57.1914Z" fill="white"/>
<path d="M57.1914 796.507V792.086H0.364384V796.507H57.1914Z" fill="white"/>
<path d="M57.1914 800.928V796.507H0.364384V800.928H57.1914Z" fill="white"/>
<path d="M57.1914 805.347V800.927H0.364384V805.347H57.1914Z" fill="white"/>
<path d="M57.1914 809.768V805.348H0.364384V809.768H57.1914Z" fill="white"/>
<path d="M57.1914 814.189V809.769H0.364384V814.189H57.1914Z" fill="white"/>
<path d="M57.1914 818.609V814.188H0.364384V818.609H57.1914Z" fill="white"/>
<path d="M57.1914 823.03V818.609H0.364384V823.03H57.1914Z" fill="white"/>
<path d="M57.1914 827.451V823.03H0.364384V827.451H57.1914Z" fill="white"/>
<path d="M57.1914 831.871V827.451H0.364384V831.871H57.1914Z" fill="white"/>
<path d="M57.1914 836.291V831.871H0.364384V836.291H57.1914Z" fill="white"/>
<path d="M57.1914 840.711V836.291H0.364384V840.711H57.1914Z" fill="white"/>
<path d="M57.1914 845.132V840.711H0.364384V845.132H57.1914Z" fill="white"/>
<path d="M57.1914 849.553V845.132H0.364384V849.553H57.1914Z" fill="white"/>
<path d="M57.1914 853.984V849.564H0.364384V853.984H57.1914Z" fill="white"/>
<path d="M57.1914 858.404V853.984H0.364384V858.404H57.1914Z" fill="white"/>
<path d="M57.1914 862.825V858.404H0.364384V862.825H57.1914Z" fill="white"/>
<path d="M57.1914 867.245V862.825H0.364384V867.245H57.1914Z" fill="white"/>
<path d="M57.1914 871.666V867.245H0.364384V871.666H57.1914Z" fill="white"/>
<path d="M57.1914 876.086V871.666H0.364384V876.086H57.1914Z" fill="white"/>
<path d="M57.1914 880.507V876.086H0.364384V880.507H57.1914Z" fill="white"/>
<path d="M57.1914 884.927V880.507H0.364384V884.927H57.1914Z" fill="white"/>
<path d="M57.1914 941.301V884.927H0.364384V941.301H57.1914Z" fill="white"/>
</g>
</g>
</g>
</g>
<defs>
<radialGradient id="paint0_radial_2352_3621" cx="0" cy="0" r="1" gradientUnits="userSpaceOnUse" gradientTransform="translate(534.82 961.5) rotate(90) scale(1314.52 1314.52)">
<stop stop-color="#1B2148"/>
<stop offset="0.27" stop-color="#191F44"/>
<stop offset="0.51" stop-color="#161B39"/>
<stop offset="0.75" stop-color="#111426"/>
<stop offset="0.98" stop-color="#090B0D"/>
<stop offset="1" stop-color="#090A0A"/>
</radialGradient>
<clipPath id="clip0_2352_3621">
<rect width="1920" height="1080" fill="white" transform="matrix(0 1 -1 0 1080 0)"/>
</clipPath>
</defs>
</svg>
